<svg width="2076" height="38" viewBox="0 0 2076 38" fill="none" xmlns="http://www.w3.org/2000/svg">
<path d="M44.7678 20.7678C45.7441 19.7915 45.7441 18.2085 44.7678 17.2322L28.8579 1.32233C27.8816 0.346021 26.2986 0.346021 25.3223 1.32233C24.346 2.29864 24.346 3.88156 25.3223 4.85787L39.4645 19L25.3223 33.1421C24.346 34.1184 24.346 35.7014 25.3223 36.6777C26.2986 37.654 27.8816 37.654 28.8579 36.6777L44.7678 20.7678ZM3 16.5C1.61929 16.5 0.499998 17.6193 0.499998 19C0.499998 20.3807 1.61929 21.5 3 21.5L3 16.5ZM43 16.5L3 16.5L3 21.5L43 21.5L43 16.5Z" fill="#9BB6FF"/>
<path d="M114.768 20.7678C115.744 19.7915 115.744 18.2085 114.768 17.2322L98.8579 1.32233C97.8816 0.346021 96.2986 0.346021 95.3223 1.32233C94.346 2.29864 94.346 3.88156 95.3223 4.85787L109.464 19L95.3223 33.1421C94.346 34.1184 94.346 35.7014 95.3223 36.6777C96.2986 37.654 97.8816 37.654 98.8579 36.6777L114.768 20.7678ZM73 16.5C71.6193 16.5 70.5 17.6193 70.5 19C70.5 20.3807 71.6193 21.5 73 21.5L73 16.5ZM113 16.5L73 16.5L73 21.5L113 21.5L113 16.5Z" fill="#9BB6FF"/>
<path d="M184.768 20.7678C185.744 19.7915 185.744 18.2085 184.768 17.2322L168.858 1.32233C167.882 0.346021 166.299 0.346021 165.322 1.32233C164.346 2.29864 164.346 3.88156 165.322 4.85787L179.464 19L165.322 33.1421C164.346 34.1184 164.346 35.7014 165.322 36.6777C166.299 37.654 167.882 37.654 168.858 36.6777L184.768 20.7678ZM143 16.5C141.619 16.5 140.5 17.6193 140.5 19C140.5 20.3807 141.619 21.5 143 21.5L143 16.5ZM183 16.5L143 16.5L143 21.5L183 21.5L183 16.5Z" fill="#9BB6FF"/>
<path d="M254.768 20.7678C255.744 19.7915 255.744 18.2085 254.768 17.2322L238.858 1.32233C237.882 0.346021 236.299 0.346021 235.322 1.32233C234.346 2.29864 234.346 3.88156 235.322 4.85787L249.464 19L235.322 33.1421C234.346 34.1184 234.346 35.7014 235.322 36.6777C236.299 37.654 237.882 37.654 238.858 36.6777L254.768 20.7678ZM213 16.5C211.619 16.5 210.5 17.6193 210.5 19C210.5 20.3807 211.619 21.5 213 21.5L213 16.5ZM253 16.5L213 16.5L213 21.5L253 21.5L253 16.5Z" fill="#9BB6FF"/>
<path d="M324.768 20.7678C325.744 19.7915 325.744 18.2085 324.768 17.2322L308.858 1.32233C307.882 0.346021 306.299 0.346021 305.322 1.32233C304.346 2.29864 304.346 3.88156 305.322 4.85787L319.464 19L305.322 33.1421C304.346 34.1184 304.346 35.7014 305.322 36.6777C306.299 37.654 307.882 37.654 308.858 36.6777L324.768 20.7678ZM283 16.5C281.619 16.5 280.5 17.6193 280.5 19C280.5 20.3807 281.619 21.5 283 21.5L283 16.5ZM323 16.5L283 16.5L283 21.5L323 21.5L323 16.5Z" fill="#9BB6FF"/>
<path d="M394.768 20.7678C395.744 19.7915 395.744 18.2085 394.768 17.2322L378.858 1.32233C377.882 0.346021 376.299 0.346021 375.322 1.32233C374.346 2.29864 374.346 3.88156 375.322 4.85787L389.464 19L375.322 33.1421C374.346 34.1184 374.346 35.7014 375.322 36.6777C376.299 37.654 377.882 37.654 378.858 36.6777L394.768 20.7678ZM353 16.5C351.619 16.5 350.5 17.6193 350.5 19C350.5 20.3807 351.619 21.5 353 21.5L353 16.5ZM393 16.5L353 16.5L353 21.5L393 21.5L393 16.5Z" fill="#9BB6FF"/>
<path d="M464.768 20.7678C465.744 19.7915 465.744 18.2085 464.768 17.2322L448.858 1.32233C447.882 0.346021 446.299 0.346021 445.322 1.32233C444.346 2.29864 444.346 3.88156 445.322 4.85787L459.464 19L445.322 33.1421C444.346 34.1184 444.346 35.7014 445.322 36.6777C446.299 37.654 447.882 37.654 448.858 36.6777L464.768 20.7678ZM423 16.5C421.619 16.5 420.5 17.6193 420.5 19C420.5 20.3807 421.619 21.5 423 21.5L423 16.5ZM463 16.5L423 16.5L423 21.5L463 21.5L463 16.5Z" fill="#9BB6FF"/>
<path d="M534.768 20.7678C535.744 19.7915 535.744 18.2085 534.768 17.2322L518.858 1.32233C517.882 0.346021 516.299 0.346021 515.322 1.32233C514.346 2.29864 514.346 3.88156 515.322 4.85787L529.464 19L515.322 33.1421C514.346 34.1184 514.346 35.7014 515.322 36.6777C516.299 37.654 517.882 37.654 518.858 36.6777L534.768 20.7678ZM493 16.5C491.619 16.5 490.5 17.6193 490.5 19C490.5 20.3807 491.619 21.5 493 21.5L493 16.5ZM533 16.5L493 16.5L493 21.5L533 21.5L533 16.5Z" fill="#9BB6FF"/>
<path d="M604.768 20.7678C605.744 19.7915 605.744 18.2085 604.768 17.2322L588.858 1.32233C587.882 0.346021 586.299 0.346021 585.322 1.32233C584.346 2.29864 584.346 3.88156 585.322 4.85787L599.464 19L585.322 33.1421C584.346 34.1184 584.346 35.7014 585.322 36.6777C586.299 37.654 587.882 37.654 588.858 36.6777L604.768 20.7678ZM563 16.5C561.619 16.5 560.5 17.6193 560.5 19C560.5 20.3807 561.619 21.5 563 21.5L563 16.5ZM603 16.5L563 16.5L563 21.5L603 21.5L603 16.5Z" fill="#9BB6FF"/>
<path d="M674.768 20.7678C675.744 19.7915 675.744 18.2085 674.768 17.2322L658.858 1.32233C657.882 0.346021 656.299 0.346021 655.322 1.32233C654.346 2.29864 654.346 3.88156 655.322 4.85787L669.464 19L655.322 33.1421C654.346 34.1184 654.346 35.7014 655.322 36.6777C656.299 37.654 657.882 37.654 658.858 36.6777L674.768 20.7678ZM633 16.5C631.619 16.5 630.5 17.6193 630.5 19C630.5 20.3807 631.619 21.5 633 21.5L633 16.5ZM673 16.5L633 16.5L633 21.5L673 21.5L673 16.5Z" fill="#9BB6FF"/>
<path d="M744.768 20.7678C745.744 19.7915 745.744 18.2085 744.768 17.2322L728.858 1.32233C727.882 0.346021 726.299 0.346021 725.322 1.32233C724.346 2.29864 724.346 3.88156 725.322 4.85787L739.464 19L725.322 33.1421C724.346 34.1184 724.346 35.7014 725.322 36.6777C726.299 37.654 727.882 37.654 728.858 36.6777L744.768 20.7678ZM703 16.5C701.619 16.5 700.5 17.6193 700.5 19C700.5 20.3807 701.619 21.5 703 21.5L703 16.5ZM743 16.5L703 16.5L703 21.5L743 21.5L743 16.5Z" fill="#9BB6FF"/>
<path d="M814.768 20.7678C815.744 19.7915 815.744 18.2085 814.768 17.2322L798.858 1.32233C797.882 0.346021 796.299 0.346021 795.322 1.32233C794.346 2.29864 794.346 3.88156 795.322 4.85787L809.464 19L795.322 33.1421C794.346 34.1184 794.346 35.7014 795.322 36.6777C796.299 37.654 797.882 37.654 798.858 36.6777L814.768 20.7678ZM773 16.5C771.619 16.5 770.5 17.6193 770.5 19C770.5 20.3807 771.619 21.5 773 21.5L773 16.5ZM813 16.5L773 16.5L773 21.5L813 21.5L813 16.5Z" fill="#9BB6FF"/>
<path d="M884.768 20.7678C885.744 19.7915 885.744 18.2085 884.768 17.2322L868.858 1.32233C867.882 0.346021 866.299 0.346021 865.322 1.32233C864.346 2.29864 864.346 3.88156 865.322 4.85787L879.464 19L865.322 33.1421C864.346 34.1184 864.346 35.7014 865.322 36.6777C866.299 37.654 867.882 37.654 868.858 36.6777L884.768 20.7678ZM843 16.5C841.619 16.5 840.5 17.6193 840.5 19C840.5 20.3807 841.619 21.5 843 21.5L843 16.5ZM883 16.5L843 16.5L843 21.5L883 21.5L883 16.5Z" fill="#9BB6FF"/>
<path d="M954.768 20.7678C955.744 19.7915 955.744 18.2085 954.768 17.2322L938.858 1.32233C937.882 0.346021 936.299 0.346021 935.322 1.32233C934.346 2.29864 934.346 3.88156 935.322 4.85787L949.464 19L935.322 33.1421C934.346 34.1184 934.346 35.7014 935.322 36.6777C936.299 37.654 937.882 37.654 938.858 36.6777L954.768 20.7678ZM913 16.5C911.619 16.5 910.5 17.6193 910.5 19C910.5 20.3807 911.619 21.5 913 21.5L913 16.5ZM953 16.5L913 16.5L913 21.5L953 21.5L953 16.5Z" fill="#9BB6FF"/>
<path d="M1024.77 20.7678C1025.74 19.7915 1025.74 18.2085 1024.77 17.2322L1008.86 1.32233C1007.88 0.346021 1006.3 0.346021 1005.32 1.32233C1004.35 2.29864 1004.35 3.88156 1005.32 4.85787L1019.46 19L1005.32 33.1421C1004.35 34.1184 1004.35 35.7014 1005.32 36.6777C1006.3 37.654 1007.88 37.654 1008.86 36.6777L1024.77 20.7678ZM983 16.5C981.619 16.5 980.5 17.6193 980.5 19C980.5 20.3807 981.619 21.5 983 21.5L983 16.5ZM1023 16.5L983 16.5L983 21.5L1023 21.5L1023 16.5Z" fill="#9BB6FF"/>
<path d="M1094.77 20.7678C1095.74 19.7915 1095.74 18.2085 1094.77 17.2322L1078.86 1.32233C1077.88 0.346021 1076.3 0.346021 1075.32 1.32233C1074.35 2.29864 1074.35 3.88156 1075.32 4.85787L1089.46 19L1075.32 33.1421C1074.35 34.1184 1074.35 35.7014 1075.32 36.6777C1076.3 37.654 1077.88 37.654 1078.86 36.6777L1094.77 20.7678ZM1053 16.5C1051.62 16.5 1050.5 17.6193 1050.5 19C1050.5 20.3807 1051.62 21.5 1053 21.5L1053 16.5ZM1093 16.5L1053 16.5L1053 21.5L1093 21.5L1093 16.5Z" fill="#9BB6FF"/>
<path d="M1164.77 20.7678C1165.74 19.7915 1165.74 18.2085 1164.77 17.2322L1148.86 1.32233C1147.88 0.346021 1146.3 0.346021 1145.32 1.32233C1144.35 2.29864 1144.35 3.88156 1145.32 4.85787L1159.46 19L1145.32 33.1421C1144.35 34.1184 1144.35 35.7014 1145.32 36.6777C1146.3 37.654 1147.88 37.654 1148.86 36.6777L1164.77 20.7678ZM1123 16.5C1121.62 16.5 1120.5 17.6193 1120.5 19C1120.5 20.3807 1121.62 21.5 1123 21.5L1123 16.5ZM1163 16.5L1123 16.5L1123 21.5L1163 21.5L1163 16.5Z" fill="#9BB6FF"/>
<path d="M1234.77 20.7678C1235.74 19.7915 1235.74 18.2085 1234.77 17.2322L1218.86 1.32233C1217.88 0.346021 1216.3 0.346021 1215.32 1.32233C1214.35 2.29864 1214.35 3.88156 1215.32 4.85787L1229.46 19L1215.32 33.1421C1214.35 34.1184 1214.35 35.7014 1215.32 36.6777C1216.3 37.654 1217.88 37.654 1218.86 36.6777L1234.77 20.7678ZM1193 16.5C1191.62 16.5 1190.5 17.6193 1190.5 19C1190.5 20.3807 1191.62 21.5 1193 21.5L1193 16.5ZM1233 16.5L1193 16.5L1193 21.5L1233 21.5L1233 16.5Z" fill="#9BB6FF"/>
<path d="M1304.77 20.7678C1305.74 19.7915 1305.74 18.2085 1304.77 17.2322L1288.86 1.32233C1287.88 0.346021 1286.3 0.346021 1285.32 1.32233C1284.35 2.29864 1284.35 3.88156 1285.32 4.85787L1299.46 19L1285.32 33.1421C1284.35 34.1184 1284.35 35.7014 1285.32 36.6777C1286.3 37.654 1287.88 37.654 1288.86 36.6777L1304.77 20.7678ZM1263 16.5C1261.62 16.5 1260.5 17.6193 1260.5 19C1260.5 20.3807 1261.62 21.5 1263 21.5L1263 16.5ZM1303 16.5L1263 16.5L1263 21.5L1303 21.5L1303 16.5Z" fill="#9BB6FF"/>
<path d="M1374.77 20.7678C1375.74 19.7915 1375.74 18.2085 1374.77 17.2322L1358.86 1.32233C1357.88 0.346021 1356.3 0.346021 1355.32 1.32233C1354.35 2.29864 1354.35 3.88156 1355.32 4.85787L1369.46 19L1355.32 33.1421C1354.35 34.1184 1354.35 35.7014 1355.32 36.6777C1356.3 37.654 1357.88 37.654 1358.86 36.6777L1374.77 20.7678ZM1333 16.5C1331.62 16.5 1330.5 17.6193 1330.5 19C1330.5 20.3807 1331.62 21.5 1333 21.5L1333 16.5ZM1373 16.5L1333 16.5L1333 21.5L1373 21.5L1373 16.5Z" fill="#9BB6FF"/>
<path d="M1444.77 20.7678C1445.74 19.7915 1445.74 18.2085 1444.77 17.2322L1428.86 1.32233C1427.88 0.346021 1426.3 0.346021 1425.32 1.32233C1424.35 2.29864 1424.35 3.88156 1425.32 4.85787L1439.46 19L1425.32 33.1421C1424.35 34.1184 1424.35 35.7014 1425.32 36.6777C1426.3 37.654 1427.88 37.654 1428.86 36.6777L1444.77 20.7678ZM1403 16.5C1401.62 16.5 1400.5 17.6193 1400.5 19C1400.5 20.3807 1401.62 21.5 1403 21.5L1403 16.5ZM1443 16.5L1403 16.5L1403 21.5L1443 21.5L1443 16.5Z" fill="#9BB6FF"/>
<path d="M1514.77 20.7678C1515.74 19.7915 1515.74 18.2085 1514.77 17.2322L1498.86 1.32233C1497.88 0.346021 1496.3 0.346021 1495.32 1.32233C1494.35 2.29864 1494.35 3.88156 1495.32 4.85787L1509.46 19L1495.32 33.1421C1494.35 34.1184 1494.35 35.7014 1495.32 36.6777C1496.3 37.654 1497.88 37.654 1498.86 36.6777L1514.77 20.7678ZM1473 16.5C1471.62 16.5 1470.5 17.6193 1470.5 19C1470.5 20.3807 1471.62 21.5 1473 21.5L1473 16.5ZM1513 16.5L1473 16.5L1473 21.5L1513 21.5L1513 16.5Z" fill="#9BB6FF"/>
<path d="M1584.77 20.7678C1585.74 19.7915 1585.74 18.2085 1584.77 17.2322L1568.86 1.32233C1567.88 0.346021 1566.3 0.346021 1565.32 1.32233C1564.35 2.29864 1564.35 3.88156 1565.32 4.85787L1579.46 19L1565.32 33.1421C1564.35 34.1184 1564.35 35.7014 1565.32 36.6777C1566.3 37.654 1567.88 37.654 1568.86 36.6777L1584.77 20.7678ZM1543 16.5C1541.62 16.5 1540.5 17.6193 1540.5 19C1540.5 20.3807 1541.62 21.5 1543 21.5L1543 16.5ZM1583 16.5L1543 16.5L1543 21.5L1583 21.5L1583 16.5Z" fill="#9BB6FF"/>
<path d="M1654.77 20.7678C1655.74 19.7915 1655.74 18.2085 1654.77 17.2322L1638.86 1.32233C1637.88 0.346021 1636.3 0.346021 1635.32 1.32233C1634.35 2.29864 1634.35 3.88156 1635.32 4.85787L1649.46 19L1635.32 33.1421C1634.35 34.1184 1634.35 35.7014 1635.32 36.6777C1636.3 37.654 1637.88 37.654 1638.86 36.6777L1654.77 20.7678ZM1613 16.5C1611.62 16.5 1610.5 17.6193 1610.5 19C1610.5 20.3807 1611.62 21.5 1613 21.5L1613 16.5ZM1653 16.5L1613 16.5L1613 21.5L1653 21.5L1653 16.5Z" fill="#9BB6FF"/>
<path d="M1724.77 20.7678C1725.74 19.7915 1725.74 18.2085 1724.77 17.2322L1708.86 1.32233C1707.88 0.346021 1706.3 0.346021 1705.32 1.32233C1704.35 2.29864 1704.35 3.88156 1705.32 4.85787L1719.46 19L1705.32 33.1421C1704.35 34.1184 1704.35 35.7014 1705.32 36.6777C1706.3 37.654 1707.88 37.654 1708.86 36.6777L1724.77 20.7678ZM1683 16.5C1681.62 16.5 1680.5 17.6193 1680.5 19C1680.5 20.3807 1681.62 21.5 1683 21.5L1683 16.5ZM1723 16.5L1683 16.5L1683 21.5L1723 21.5L1723 16.5Z" fill="#9BB6FF"/>
<path d="M1794.77 20.7678C1795.74 19.7915 1795.74 18.2085 1794.77 17.2322L1778.86 1.32233C1777.88 0.346021 1776.3 0.346021 1775.32 1.32233C1774.35 2.29864 1774.35 3.88156 1775.32 4.85787L1789.46 19L1775.32 33.1421C1774.35 34.1184 1774.35 35.7014 1775.32 36.6777C1776.3 37.654 1777.88 37.654 1778.86 36.6777L1794.77 20.7678ZM1753 16.5C1751.62 16.5 1750.5 17.6193 1750.5 19C1750.5 20.3807 1751.62 21.5 1753 21.5L1753 16.5ZM1793 16.5L1753 16.5L1753 21.5L1793 21.5L1793 16.5Z" fill="#9BB6FF"/>
<path d="M1864.77 20.7678C1865.74 19.7915 1865.74 18.2085 1864.77 17.2322L1848.86 1.32233C1847.88 0.346021 1846.3 0.346021 1845.32 1.32233C1844.35 2.29864 1844.35 3.88156 1845.32 4.85787L1859.46 19L1845.32 33.1421C1844.35 34.1184 1844.35 35.7014 1845.32 36.6777C1846.3 37.654 1847.88 37.654 1848.86 36.6777L1864.77 20.7678ZM1823 16.5C1821.62 16.5 1820.5 17.6193 1820.5 19C1820.5 20.3807 1821.62 21.5 1823 21.5L1823 16.5ZM1863 16.5L1823 16.5L1823 21.5L1863 21.5L1863 16.5Z" fill="#9BB6FF"/>
<path d="M1934.77 20.7678C1935.74 19.7915 1935.74 18.2085 1934.77 17.2322L1918.86 1.32233C1917.88 0.346021 1916.3 0.346021 1915.32 1.32233C1914.35 2.29864 1914.35 3.88156 1915.32 4.85787L1929.46 19L1915.32 33.1421C1914.35 34.1184 1914.35 35.7014 1915.32 36.6777C1916.3 37.654 1917.88 37.654 1918.86 36.6777L1934.77 20.7678ZM1893 16.5C1891.62 16.5 1890.5 17.6193 1890.5 19C1890.5 20.3807 1891.62 21.5 1893 21.5L1893 16.5ZM1933 16.5L1893 16.5L1893 21.5L1933 21.5L1933 16.5Z" fill="#9BB6FF"/>
<path d="M2004.77 20.7678C2005.74 19.7915 2005.74 18.2085 2004.77 17.2322L1988.86 1.32233C1987.88 0.346021 1986.3 0.346021 1985.32 1.32233C1984.35 2.29864 1984.35 3.88156 1985.32 4.85787L1999.46 19L1985.32 33.1421C1984.35 34.1184 1984.35 35.7014 1985.32 36.6777C1986.3 37.654 1987.88 37.654 1988.86 36.6777L2004.77 20.7678ZM1963 16.5C1961.62 16.5 1960.5 17.6193 1960.5 19C1960.5 20.3807 1961.62 21.5 1963 21.5L1963 16.5ZM2003 16.5L1963 16.5L1963 21.5L2003 21.5L2003 16.5Z" fill="#9BB6FF"/>
<path d="M2074.77 20.7678C2075.74 19.7915 2075.74 18.2085 2074.77 17.2322L2058.86 1.32233C2057.88 0.346021 2056.3 0.346021 2055.32 1.32233C2054.35 2.29864 2054.35 3.88156 2055.32 4.85787L2069.46 19L2055.32 33.1421C2054.35 34.1184 2054.35 35.7014 2055.32 36.6777C2056.3 37.654 2057.88 37.654 2058.86 36.6777L2074.77 20.7678ZM2033 16.5C2031.62 16.5 2030.5 17.6193 2030.5 19C2030.5 20.3807 2031.62 21.5 2033 21.5L2033 16.5ZM2073 16.5L2033 16.5L2033 21.5L2073 21.5L2073 16.5Z" fill="#9BB6FF"/>
</svg>
