<svg width="2147" height="939" viewBox="0 0 2147 939" fill="none" xmlns="http://www.w3.org/2000/svg">
<path d="M534.737 102.448C534.737 125.57 477.471 144.308 406.833 144.308C396.632 144.308 386.715 143.923 377.207 143.174C378.256 145.333 378.807 147.558 378.807 149.816C378.807 172.939 321.541 191.677 250.903 191.677C180.266 191.677 123 172.939 123 149.816C123 126.694 180.266 107.956 250.903 107.956C261.105 107.956 271.021 108.341 280.53 109.09C279.48 106.931 278.93 104.706 278.93 102.448C278.93 94.6816 285.381 87.4222 296.612 81.1872C247.642 75.3157 212.685 59.9265 212.685 41.8604C212.685 18.738 269.951 0 340.589 0C411.226 0 468.492 18.738 468.492 41.8604C468.492 49.6266 462.041 56.8861 450.81 63.1211C499.78 68.9926 534.737 84.3818 534.737 102.448Z" fill="white"/>
<path d="M1282.91 110.16C1241.74 129.209 1190.2 145.696 1142.22 155.172C1117.44 145.696 1108.51 145.351 1109.62 153.955C1100.9 146.6 1101.4 148.56 1111.39 161.095C1101.4 170.883 1049.86 187.369 970.694 206.106C922.712 187.369 871.174 170.883 830 161.095C871.174 130.2 922.712 113.714 970.694 116.083C995.469 113.714 1004.4 114.048 1003.29 117.3C1012.01 112.809 1011.51 110.849 1001.52 110.16C1011.51 102.041 1017.32 95.6445 1020.97 87.299C983.351 84.9946 951.89 71.4588 928.654 45.0117C951.89 35.2233 1003.43 18.7369 1069.35 0C1130.58 18.7369 1182.12 35.2233 1210.04 45.0117C1182.12 62.3918 1176.31 68.7882 1190.6 67.8729C1210.28 79.4381 1241.74 92.9739 1282.91 110.16Z" fill="white"/>
<path d="M2023.08 120.175C1940.74 135.67 1894.93 150.326 1869.6 169.278C1830.25 150.326 1822.32 150.025 1834.05 167.943C1815.55 151.123 1815.99 152.867 1835.97 175.739C1815.99 172.714 1770.18 187.369 1682.48 224.843C1657.16 187.369 1611.35 172.714 1529 175.739C1611.35 136.553 1657.16 121.898 1682.48 126.636C1721.83 121.898 1729.76 122.199 1718.03 127.971C1736.53 121.101 1736.09 119.356 1716.12 120.175C1736.09 111.517 1741.25 105.842 1737.33 95.2353C1711.06 96.3767 1683.1 84.3377 1636.62 49.1037C1683.1 52.1296 1728.91 37.4739 1790.11 0C1841.93 37.4739 1887.74 52.1296 1943.59 49.1037C1887.74 76.283 1882.58 81.9579 1922.37 74.0432C1912.77 91.4233 1940.74 103.462 2023.08 120.175Z" fill="white"/>
<path d="M596.054 445.952C472.58 458.147 432.512 471.245 429.843 500.276C375.94 471.245 369.002 470.97 391.344 498.803C363.083 471.96 363.47 473.51 393.422 507.424C363.47 491.248 323.402 504.345 227.211 561.749C224.542 504.345 184.474 491.248 61 507.424C184.474 458.939 224.542 445.842 227.211 453.1C281.114 445.842 288.051 446.106 265.71 454.574C293.97 445.127 293.583 443.577 263.632 445.952C293.583 436.572 298.096 431.491 286.605 418.361C271.69 423.035 247.23 412.28 177.546 367.324C247.23 383.501 287.298 370.404 343.757 313C386.158 370.404 426.226 383.501 509.968 367.324C426.226 405.077 421.713 410.157 486.995 394.916C448.119 418.614 472.58 429.369 596.054 445.952Z" fill="white"/>
<path d="M1344.43 453.204C1179.74 461.592 1145.38 472.587 1165.37 510.492C1096.87 472.587 1090.93 472.361 1123.89 508.941C1085.84 473.19 1086.18 474.493 1126.13 518.029C1086.18 489.375 1051.82 500.369 947.065 575.317C967.05 500.369 932.695 489.375 768 518.029C932.695 462.26 967.05 451.266 947.065 460.742C1015.56 451.266 1021.5 451.492 988.544 462.292C1026.59 450.663 1026.25 449.36 986.302 453.204C1026.25 443.48 1030.13 439.227 1011.06 424.108C1007.48 432.119 986.506 423.096 893.559 370.288C986.506 398.942 1020.86 387.948 1072.62 313C1105.63 387.948 1139.99 398.942 1251.69 370.288C1139.99 417.055 1136.12 421.308 1226.93 399.384C1158.76 428.415 1179.74 437.439 1344.43 453.204Z" fill="white"/>
<path d="M2085.6 463.218C1879.74 468.053 1851.1 477.217 1893.75 524.598C1810.68 477.217 1805.73 477.023 1849.3 522.929C1801.5 477.713 1801.77 478.8 1851.71 532.674C1801.77 491.205 1773.13 500.369 1659.85 594.054C1702.51 500.369 1673.87 491.205 1468 532.674C1673.87 468.613 1702.51 459.45 1659.85 471.295C1742.93 459.45 1747.88 459.633 1704.3 472.953C1752.11 458.943 1751.83 457.856 1701.89 463.218C1751.83 452.967 1755.06 449.413 1728.41 432.044C1736.19 443.491 1718.71 435.975 1602.53 374.38C1718.71 415.848 1747.35 406.685 1794.38 313C1817.98 406.685 1846.61 415.848 1986.24 374.38C1846.61 430.935 1843.38 434.489 1959.72 405.554C1862.26 440.411 1879.74 447.927 2085.6 463.218Z" fill="white"/>
<path d="M658 792.328C411.25 793.556 388.367 800.517 453.597 854.569C356.077 800.517 352.107 800.374 406.252 852.88C348.738 800.896 348.952 801.725 408.807 862.759C348.952 811.164 326.068 818.125 204.403 925C269.633 818.125 246.75 811.164 0 862.759C246.75 793.966 269.633 787.004 204.403 800.517C301.923 787.004 305.893 787.148 251.748 802.206C309.262 786.626 309.048 785.796 249.193 792.328C309.048 782.07 311.624 779.367 277.451 760.716C296.548 774.873 282.582 769.151 143.327 702.241C282.582 753.836 305.465 746.875 347.73 640C361.9 746.875 384.783 753.836 552.134 702.241C384.783 765.322 382.208 768.025 523.876 733.853C397.284 772.519 411.25 778.241 658 792.328Z" fill="white"/>
<path d="M1385 793.207C1099.65 791.105 1082.63 796.209 1169.72 857.851C1058.63 796.209 1055.68 796.099 1119.86 856.099C1053.17 796.489 1053.33 797.1 1122.55 866.356C1053.33 804.014 1036.32 809.118 907.276 931C994.365 809.118 977.353 804.014 692 866.356C977.353 791.406 994.365 786.302 907.276 801.713C1018.37 786.302 1021.32 786.402 957.142 803.464C1023.83 786.022 1023.67 785.412 954.448 793.207C1023.67 782.69 1025.58 780.708 984.204 760.375C1014.37 777.406 1003.99 773.213 842.951 699.644C1003.99 761.986 1021 756.882 1058.23 635C1062.96 756.882 1079.97 761.986 1273.5 699.644C1079.97 770.401 1078.05 772.383 1243.75 732.476C1089.26 775.685 1099.65 779.878 1385 793.207Z" fill="white"/>
<path d="M2147 793.293C1823.44 787.897 1812.19 791.294 1920.85 861.649C1796.31 791.294 1794.36 791.224 1868.46 859.801C1792.7 791.484 1792.81 791.884 1871.3 870.644C1792.81 796.491 1781.56 799.889 1645.15 939C1753.81 799.889 1742.56 796.491 1419 870.644C1742.56 788.096 1753.81 784.699 1645.15 802.287C1769.69 784.699 1771.64 784.769 1697.54 804.136C1773.3 784.509 1773.19 784.109 1694.7 793.293C1773.19 782.29 1774.46 780.971 1725.97 758.575C1767.04 778.772 1760.17 775.984 1577.57 694.356C1760.17 768.509 1771.43 765.111 1803.72 626C1799.18 765.111 1810.43 768.509 2029.87 694.356C1810.43 774.115 1809.16 775.435 1998.61 729.074C1816.58 777.633 1823.44 780.421 2147 793.293Z" fill="white"/>
</svg>
