<svg width="5924" height="720" viewBox="0 0 5924 720" fill="none" xmlns="http://www.w3.org/2000/svg">
<path d="M2037.7 468.34H2035.71C2035.71 421.356 2032.5 377.185 2026.67 343.963C2018.33 296.45 2008.62 292.755 2005.86 292.755C2003.09 292.755 1993.36 296.45 1985.02 343.963C1979.19 377.185 1975.99 421.356 1975.99 468.34H1974C1974 421.343 1977.2 377.158 1983.03 343.922C1989.06 309.519 1996.74 292.076 2005.86 292.076C2014.97 292.076 2022.63 309.519 2028.66 343.922C2034.49 377.158 2037.7 421.343 2037.7 468.34Z" fill="#9BB6FF"/>
<path d="M2067.56 643.245C2058.47 643.245 2050.79 625.802 2044.76 591.399C2038.93 558.163 2035.73 513.978 2035.73 466.981H2037.72C2037.72 513.965 2040.92 558.136 2046.75 591.358C2055.09 638.871 2064.8 642.566 2067.58 642.566C2070.37 642.566 2080.08 638.871 2088.42 591.358C2094.25 558.136 2097.45 513.965 2097.45 466.981H2099.44C2099.44 513.978 2096.24 558.163 2090.41 591.399C2084.38 625.802 2076.7 643.245 2067.6 643.245H2067.56Z" fill="#9BB6FF"/>
<path d="M2161.04 468H2159.03C2159.03 354.842 2155.8 248.456 2149.94 168.442C2141.57 54.0072 2131.81 45.1076 2129.02 45.1076C2126.23 45.1076 2116.47 54.0072 2108.08 168.442C2102.22 248.456 2098.99 354.842 2098.99 468H2096.98C2096.98 354.809 2100.22 248.39 2106.08 168.344C2112.14 85.4828 2119.87 43.4717 2129.02 43.4717C2138.17 43.4717 2145.88 85.4828 2151.97 168.344C2157.83 248.39 2161.06 354.809 2161.06 468H2161.04Z" fill="#9BB6FF"/>
<path d="M2190.51 688.755C2181.51 688.755 2173.92 666.842 2167.94 623.621C2162.17 581.869 2158.99 526.361 2158.99 467.321H2160.97C2160.97 526.344 2164.15 581.835 2169.91 623.57C2178.15 683.259 2187.77 687.901 2190.51 687.901C2193.26 687.901 2202.86 683.259 2211.11 623.57C2216.88 581.835 2220.06 526.344 2220.06 467.321H2222.03C2222.03 526.361 2218.85 581.869 2213.09 623.621C2207.12 666.842 2199.52 688.755 2190.51 688.755Z" fill="#9BB6FF"/>
<path d="M2284.04 468.679H2282.04C2282.04 408.388 2278.81 351.706 2272.95 309.075C2264.56 248.104 2254.78 243.362 2252 243.362C2249.23 243.362 2239.43 248.104 2231.06 309.075C2225.2 351.706 2221.97 408.388 2221.97 468.679H2219.97C2219.97 408.371 2223.2 351.671 2229.06 309.022C2235.14 264.874 2242.85 242.491 2252 242.491C2261.16 242.491 2268.87 264.874 2274.95 309.022C2280.8 351.671 2284.04 408.371 2284.04 468.679Z" fill="#9BB6FF"/>
<path d="M2314.15 643.245C2305.04 643.245 2297.36 625.802 2291.31 591.399C2285.48 558.163 2282.25 513.978 2282.25 466.981H2284.24C2284.24 513.965 2287.47 558.136 2293.3 591.358C2301.66 638.871 2311.39 642.566 2314.15 642.566C2316.92 642.566 2326.67 638.871 2335.01 591.358C2340.84 558.136 2344.06 513.965 2344.06 466.981H2346.05C2346.05 513.978 2342.83 558.163 2337 591.399C2330.95 625.802 2323.27 643.245 2314.15 643.245Z" fill="#9BB6FF"/>
<path d="M2407.66 468.34H2405.67C2405.67 421.356 2402.46 377.185 2396.65 343.963C2388.34 296.45 2378.64 292.755 2375.86 292.755C2373.07 292.755 2363.38 296.45 2355.06 343.963C2349.25 377.185 2346.05 421.356 2346.05 468.34H2344.06C2344.06 421.343 2347.26 377.158 2353.09 343.922C2359.12 309.519 2366.79 292.076 2375.88 292.076C2384.97 292.076 2392.63 309.519 2398.66 343.922C2404.47 377.158 2407.7 421.343 2407.7 468.34H2407.66Z" fill="#9BB6FF"/>
<path d="M2437.53 702.34C2428.52 702.34 2420.92 679.082 2414.95 633.211C2409.19 588.897 2405.99 529.983 2405.99 467.321H2407.96C2407.96 529.965 2411.14 588.86 2416.9 633.156C2425.15 696.507 2434.75 701.434 2437.51 701.434C2440.27 701.434 2449.88 696.507 2458.13 633.156C2463.89 588.86 2467.06 529.965 2467.06 467.321H2469.03C2469.03 529.983 2465.86 588.897 2460.08 633.211C2454.1 679.082 2446.51 702.34 2437.49 702.34H2437.53Z" fill="#9BB6FF"/>
<path d="M2531.02 468.679H2529.02C2529.02 379.239 2525.8 295.152 2519.94 231.908C2511.56 141.459 2501.78 134.425 2498.98 134.425C2496.18 134.425 2486.43 141.459 2478.05 231.908C2472.19 295.152 2468.97 379.239 2468.97 468.679H2466.97C2466.97 379.213 2470.19 295.1 2476.07 231.831C2482.13 166.338 2489.87 133.132 2499 133.132C2508.14 133.132 2515.88 166.338 2521.94 231.831C2527.8 295.1 2531.04 379.213 2531.04 468.679H2531.02Z" fill="#9BB6FF"/>
<path d="M2560.92 643.245C2551.8 643.245 2544.12 625.802 2538.09 591.399C2532.26 558.163 2529.04 513.978 2529.04 466.981H2531.03C2531.03 513.965 2534.23 558.136 2540.06 591.358C2548.4 638.871 2558.13 642.566 2560.9 642.566C2563.66 642.566 2573.39 638.871 2581.75 591.358C2587.58 558.136 2590.79 513.965 2590.79 466.981H2592.78C2592.78 513.978 2589.57 558.163 2583.72 591.399C2577.67 625.802 2569.99 643.245 2560.9 643.245H2560.92Z" fill="#9BB6FF"/>
<path d="M2654.36 468.34H2652.37C2652.37 421.356 2649.17 377.185 2643.36 343.963C2635.04 296.45 2625.35 292.755 2622.58 292.755C2619.82 292.755 2610.13 296.45 2601.81 343.963C2596 377.185 2592.8 421.356 2592.8 468.34H2590.81C2590.81 421.343 2594.01 377.158 2599.82 343.922C2605.83 309.519 2613.49 292.076 2622.58 292.076C2631.68 292.076 2639.32 309.519 2645.35 343.922C2651.16 377.158 2654.36 421.343 2654.36 468.34Z" fill="#9BB6FF"/>
<path d="M2684 688.755C2674.85 688.755 2667.12 666.842 2661.05 623.622C2655.19 581.869 2651.96 526.361 2651.96 467.321H2653.96C2653.96 526.344 2657.19 581.835 2663.05 623.57C2671.44 683.259 2681.21 687.901 2684 687.901C2686.78 687.901 2696.55 683.259 2704.94 623.57C2710.8 581.835 2714.03 526.344 2714.03 467.321H2716.03C2716.03 526.361 2712.8 581.869 2706.95 623.622C2700.89 666.842 2693.16 688.755 2684 688.755Z" fill="#9BB6FF"/>
<path d="M2778.04 468H2776.04C2776.04 343.254 2772.81 225.975 2766.96 137.767C2758.57 11.6143 2748.8 1.80347 2746 1.80347C2743.21 1.80347 2733.44 11.6143 2725.05 137.767C2719.18 225.975 2715.96 343.254 2715.96 468H2713.97C2713.97 343.218 2717.2 225.902 2723.05 137.659C2729.13 46.3131 2736.86 0 2746 0C2755.15 0 2762.88 46.3131 2768.95 137.659C2774.83 225.902 2778.04 343.218 2778.04 468Z" fill="#9BB6FF"/>
<path d="M2807.72 643.245C2798.59 643.245 2790.91 625.802 2784.86 591.399C2779.01 558.163 2775.81 513.978 2775.81 466.981H2777.8C2777.8 513.965 2781.02 558.136 2786.85 591.358C2795.21 638.871 2804.94 642.566 2807.72 642.566C2810.51 642.566 2820.24 638.871 2828.6 591.358C2834.45 558.136 2837.65 513.965 2837.65 466.981H2839.64C2839.64 513.978 2836.42 558.163 2830.59 591.399C2824.54 625.802 2816.84 643.245 2807.72 643.245Z" fill="#9BB6FF"/>
<path d="M2901.31 468.34H2899.32C2899.32 421.356 2896.12 377.185 2890.29 343.963C2881.97 296.45 2872.26 292.755 2869.47 292.755C2866.69 292.755 2856.99 296.45 2848.66 343.963C2842.83 377.185 2839.62 421.356 2839.62 468.34H2837.63C2837.63 421.343 2840.84 377.158 2846.67 343.922C2852.7 309.519 2860.36 292.076 2869.45 292.076C2878.54 292.076 2886.21 309.519 2892.26 343.922C2898.09 377.158 2901.29 421.343 2901.29 468.34H2901.31Z" fill="#9BB6FF"/>
<path d="M2931.16 643.245C2922.06 643.245 2914.38 625.802 2908.35 591.399C2902.52 558.163 2899.32 513.978 2899.32 466.981H2901.31C2901.31 513.965 2904.51 558.136 2910.34 591.358C2918.68 638.871 2928.37 642.566 2931.16 642.566C2933.94 642.566 2943.63 638.871 2951.97 591.358C2957.8 558.136 2961.01 513.965 2961.01 466.981H2963C2963 513.978 2959.79 558.163 2953.96 591.399C2947.93 625.802 2940.27 643.245 2931.18 643.245H2931.16Z" fill="#9BB6FF"/>
<path d="M3025.04 468.679H3023.04C3023.04 389.921 3019.82 315.877 3013.95 260.187C3005.57 180.54 2995.81 174.346 2993 174.346C2990.2 174.346 2980.44 180.54 2972.05 260.187C2966.19 315.877 2962.97 389.921 2962.97 468.679H2960.97C2960.97 389.898 2964.19 315.831 2970.05 260.118C2976.11 202.447 2983.84 173.208 2992.98 173.208C3002.13 173.208 3009.85 202.447 3015.92 260.118C3021.78 315.831 3025 389.898 3025 468.679H3025.04Z" fill="#9BB6FF"/>
<path d="M3054.47 688.755C3045.48 688.755 3037.88 666.775 3031.91 623.422C3026.14 581.541 3022.97 525.863 3022.97 466.642H3024.94C3024.94 525.846 3028.11 581.507 3033.88 623.37C3042.13 683.243 3051.74 687.899 3054.49 687.899C3057.25 687.899 3066.86 683.243 3075.11 623.37C3080.88 581.507 3084.05 525.846 3084.05 466.642H3086.02C3086.02 525.863 3082.85 581.541 3077.08 623.422C3071.11 666.775 3063.51 688.755 3054.51 688.755H3054.47Z" fill="#9BB6FF"/>
<path d="M3147.9 468.34H3145.91C3145.91 421.356 3142.7 377.185 3136.89 343.963C3128.59 296.45 3118.9 292.755 3116.14 292.755C3113.37 292.755 3103.7 296.45 3095.38 343.963C3089.57 377.185 3086.37 421.356 3086.37 468.34H3084.38C3084.38 421.343 3087.58 377.158 3093.39 343.922C3099.4 309.519 3107.06 292.076 3116.14 292.076C3125.21 292.076 3132.85 309.519 3138.88 343.922C3144.69 377.158 3147.9 421.343 3147.9 468.34Z" fill="#9BB6FF"/>
<path d="M3177.66 643.245C3168.59 643.245 3160.95 625.802 3154.92 591.399C3149.11 558.163 3145.9 513.978 3145.9 466.981H3147.89C3147.89 513.965 3151.1 558.136 3156.91 591.358C3165.21 638.871 3174.9 642.566 3177.66 642.566C3180.43 642.566 3190.1 638.871 3198.42 591.358C3204.23 558.136 3207.43 513.965 3207.43 466.981H3209.42C3209.42 513.978 3206.22 558.163 3200.41 591.399C3194.4 625.802 3186.74 643.245 3177.66 643.245Z" fill="#9BB6FF"/>
<path d="M3271.23 468.34H3269.24C3269.24 421.356 3266.01 377.185 3260.18 343.963C3251.85 296.45 3242.12 292.755 3239.33 292.755C3236.54 292.755 3226.81 296.45 3218.48 343.963C3212.65 377.185 3209.42 421.356 3209.42 468.34H3207.43C3207.43 421.343 3210.66 377.158 3216.49 343.922C3222.54 309.519 3230.22 292.076 3239.33 292.076C3248.44 292.076 3256.13 309.519 3262.17 343.922C3268 377.158 3271.23 421.343 3271.23 468.34Z" fill="#9BB6FF"/>
<path d="M3300.98 711.17C3291.82 711.17 3284.11 687.039 3278.03 639.443C3272.18 593.465 3268.94 532.338 3268.94 467.321H3270.94C3270.94 532.319 3274.18 593.427 3280.03 639.387C3288.41 705.118 3298.18 710.23 3300.98 710.23C3303.78 710.23 3313.55 705.118 3321.92 639.387C3327.78 593.427 3331.02 532.319 3331.02 467.321H3333.02C3333.02 532.338 3329.78 593.465 3323.92 639.443C3317.85 687.039 3310.13 711.17 3300.98 711.17Z" fill="#9BB6FF"/>
<path d="M3394.98 468.679H3392.98C3392.98 399.336 3389.76 334.143 3383.9 285.11C3375.53 214.984 3365.77 209.531 3362.97 209.531C3360.16 209.531 3350.4 214.984 3342.03 285.11C3336.18 334.143 3332.95 399.336 3332.95 468.679H3330.95C3330.95 399.316 3334.18 334.103 3340.05 285.05C3346.12 234.273 3353.83 208.528 3362.99 208.528C3372.14 208.528 3379.86 234.273 3385.93 285.05C3391.78 334.103 3395.02 399.316 3395.02 468.679H3394.98Z" fill="#9BB6FF"/>
<path d="M3424.45 643.245C3415.36 643.245 3407.7 625.802 3401.67 591.399C3395.86 558.163 3392.63 513.978 3392.63 466.981H3394.62C3394.62 513.965 3397.83 558.136 3403.64 591.358C3411.95 638.871 3421.64 642.566 3424.43 642.566C3427.22 642.566 3436.91 638.871 3445.22 591.358C3451.04 558.136 3454.24 513.965 3454.24 466.981H3456.23C3456.23 513.978 3453.03 558.163 3447.19 591.399C3441.17 625.802 3433.5 643.245 3424.41 643.245H3424.45Z" fill="#9BB6FF"/>
<path d="M3518.01 468.34H3516.02C3516.02 421.356 3512.82 377.185 3506.99 343.963C3498.65 296.45 3488.92 292.755 3486.16 292.755C3483.39 292.755 3473.66 296.45 3465.32 343.963C3459.49 377.185 3456.29 421.356 3456.29 468.34H3454.3C3454.3 421.343 3457.5 377.158 3463.35 343.922C3469.38 309.519 3477.06 292.076 3486.18 292.076C3495.29 292.076 3502.97 309.519 3509 343.922C3514.83 377.158 3518.05 421.343 3518.05 468.34H3518.01Z" fill="#9BB6FF"/>
<path d="M3548 720C3538.83 720 3531.11 694.995 3525.05 645.676C3519.18 598.032 3515.94 534.692 3515.94 467.321H3517.94C3517.94 534.673 3521.16 597.993 3527.03 645.618C3535.41 713.729 3545.2 719.026 3547.98 719.026C3550.76 719.026 3560.54 713.729 3568.93 645.618C3574.79 597.993 3578.01 534.673 3578.01 467.321H3580.02C3580.02 534.692 3576.79 598.032 3570.91 645.676C3564.85 694.995 3557.12 720 3547.96 720H3548Z" fill="#9BB6FF"/>
<path d="M3640.99 468H3639.02C3639.02 410.606 3635.84 356.647 3630.08 316.064C3621.82 258.023 3612.21 253.509 3609.47 253.509C3606.73 253.509 3597.11 258.023 3588.86 316.064C3583.1 356.647 3579.92 410.606 3579.92 468H3577.95C3577.95 410.589 3581.13 356.614 3586.89 316.014C3592.85 273.987 3600.45 252.679 3609.47 252.679C3618.49 252.679 3626.07 273.987 3632.05 316.014C3637.81 356.614 3640.99 410.589 3640.99 468Z" fill="#9BB6FF"/>
<path d="M3671.14 643.245C3662.06 643.245 3654.4 625.802 3648.37 591.399C3642.56 558.163 3639.36 513.978 3639.36 466.981H3641.35C3641.35 513.965 3644.55 558.136 3650.36 591.358C3658.68 638.871 3668.37 642.566 3671.14 642.566C3673.9 642.566 3683.59 638.871 3691.91 591.358C3697.72 558.136 3700.92 513.965 3700.92 466.981H3702.91C3702.91 513.978 3699.71 558.163 3693.9 591.399C3687.87 625.802 3680.23 643.245 3671.14 643.245Z" fill="#9BB6FF"/>
<path d="M3764.76 468.34H3762.77C3762.77 421.356 3759.55 377.185 3753.72 343.963C3745.36 296.45 3735.63 292.755 3732.84 292.755C3730.06 292.755 3720.33 296.45 3711.97 343.963C3706.12 377.185 3702.92 421.356 3702.92 468.34H3700.93C3700.93 421.343 3704.15 377.158 3709.98 343.922C3716.03 309.518 3723.73 292.075 3732.84 292.075C3741.96 292.075 3749.66 309.518 3755.71 343.922C3761.56 377.158 3764.76 421.343 3764.76 468.34Z" fill="#9BB6FF"/>
<path d="M3794.71 643.245C3785.6 643.245 3777.9 625.802 3771.85 591.398C3766 558.163 3762.79 513.978 3762.79 466.981H3764.78C3764.78 513.964 3768.01 558.136 3773.84 591.358C3782.19 638.871 3791.92 642.566 3794.71 642.566C3797.5 642.566 3807.23 638.871 3815.58 591.358C3821.43 558.136 3824.64 513.964 3824.64 466.981H3826.63C3826.63 513.978 3823.4 558.163 3817.57 591.398C3811.52 625.802 3803.82 643.245 3794.71 643.245Z" fill="#9BB6FF"/>
<path d="M3887.99 468.679H3886.02C3886.02 372.721 3882.85 282.506 3877.08 214.654C3868.82 117.613 3859.23 110.066 3856.47 110.066C3853.71 110.066 3844.12 117.613 3835.86 214.654C3830.09 282.506 3826.92 372.721 3826.92 468.679H3824.95C3824.95 372.693 3828.12 282.45 3833.89 214.571C3839.86 144.305 3847.45 108.679 3856.47 108.679C3865.49 108.679 3873.06 144.305 3879.05 214.571C3884.82 282.45 3887.99 372.693 3887.99 468.679Z" fill="#9BB6FF"/>
<path d="M3918.14 643.245C3909.05 643.245 3901.39 625.802 3895.36 591.398C3889.53 558.163 3886.32 513.978 3886.32 466.981H3888.31C3888.31 513.964 3891.52 558.136 3897.35 591.358C3905.66 638.871 3915.38 642.566 3918.16 642.566C3920.95 642.566 3930.64 638.871 3938.98 591.358C3944.81 558.136 3948.01 513.964 3948.01 466.981H3950C3950 513.978 3946.8 558.163 3940.97 591.398C3934.94 625.802 3927.28 643.245 3918.16 643.245H3918.14Z" fill="#9BB6FF"/>
<path d="M63.6963 468.34H61.7064C61.7064 421.356 58.5027 377.185 52.6724 343.963C44.3347 296.45 34.6241 292.755 31.8581 292.755C29.0922 292.755 19.3616 296.45 11.024 343.963C5.19361 377.185 1.98989 421.356 1.98989 468.34H0C0 421.343 3.20372 377.158 9.03409 343.922C15.0635 309.519 22.7444 292.076 31.8581 292.076C40.9718 292.076 48.6329 309.519 54.6622 343.922C60.4926 377.158 63.6963 421.343 63.6963 468.34Z" fill="#9BB6FF"/>
<path d="M93.5638 643.245C84.47 643.245 76.789 625.802 70.7597 591.399C64.9293 558.163 61.7256 513.978 61.7256 466.981H63.7155C63.7155 513.965 66.9192 558.136 72.7496 591.358C81.0872 638.871 90.7979 642.566 93.5837 642.566C96.3695 642.566 106.08 638.871 114.418 591.358C120.248 558.136 123.452 513.965 123.452 466.981H125.442C125.442 513.978 122.238 558.163 116.408 591.399C110.378 625.802 102.697 643.245 93.6036 643.245H93.5638Z" fill="#9BB6FF"/>
<path d="M187.039 468H185.031C185.031 354.842 181.799 248.456 175.938 168.442C167.567 54.0072 157.811 45.1076 155.021 45.1076C152.231 45.1076 142.475 54.0072 134.084 168.442C128.223 248.456 124.991 354.842 124.991 468H122.983C122.983 354.809 126.215 248.39 132.077 168.344C138.139 85.4828 145.867 43.4717 155.021 43.4717C164.175 43.4717 171.883 85.4828 177.965 168.344C183.827 248.39 187.059 354.809 187.059 468H187.039Z" fill="#9BB6FF"/>
<path d="M216.512 688.755C207.506 688.755 199.922 666.842 193.938 623.621C188.171 581.869 184.991 526.361 184.991 467.321H186.966C186.966 526.344 190.146 581.835 195.913 623.57C204.149 683.259 213.767 687.901 216.512 687.901C219.257 687.901 228.856 683.259 237.111 623.57C242.878 581.835 246.058 526.344 246.058 467.321H248.033C248.033 526.361 244.853 581.869 239.086 623.621C233.122 666.842 225.518 688.755 216.512 688.755Z" fill="#9BB6FF"/>
<path d="M310.042 468.679H308.043C308.043 408.388 304.806 351.706 298.95 309.075C290.556 248.104 280.783 243.362 278.004 243.362C275.226 243.362 265.433 248.104 257.059 309.075C251.203 351.706 247.965 408.388 247.965 468.679H245.967C245.967 408.371 249.205 351.671 255.06 309.022C261.136 264.874 268.851 242.491 278.004 242.491C287.158 242.491 294.873 264.874 300.948 309.022C306.804 351.671 310.042 408.371 310.042 468.679Z" fill="#9BB6FF"/>
<path d="M340.152 643.245C331.038 643.245 323.357 625.802 317.308 591.399C311.478 558.163 308.254 513.978 308.254 466.981H310.244C310.244 513.965 313.467 558.136 319.298 591.358C327.655 638.871 337.386 642.566 340.152 642.566C342.918 642.566 352.668 638.871 361.006 591.358C366.836 558.136 370.06 513.965 370.06 466.981H372.05C372.05 513.978 368.826 558.163 362.996 591.399C356.946 625.802 349.266 643.245 340.152 643.245Z" fill="#9BB6FF"/>
<path d="M433.657 468.34H431.667C431.667 421.356 428.464 377.185 422.653 343.963C414.336 296.45 404.645 292.755 401.859 292.755C399.073 292.755 389.382 296.45 381.065 343.963C375.254 377.185 372.05 421.356 372.05 468.34H370.061C370.061 421.343 373.264 377.158 379.095 343.922C385.124 309.519 392.785 292.076 401.879 292.076C410.973 292.076 418.634 309.519 424.663 343.922C430.474 377.158 433.697 421.343 433.697 468.34H433.657Z" fill="#9BB6FF"/>
<path d="M463.533 702.34C454.518 702.34 446.924 679.082 440.947 633.211C435.188 588.897 431.992 529.983 431.992 467.321H433.965C433.965 529.965 437.14 588.86 442.9 633.156C451.145 696.507 460.752 701.434 463.513 701.434C466.275 701.434 475.881 696.507 484.126 633.156C489.886 588.86 493.061 529.965 493.061 467.321H495.034C495.034 529.983 491.858 588.897 486.079 633.211C480.102 679.082 472.508 702.34 463.493 702.34H463.533Z" fill="#9BB6FF"/>
<path d="M557.022 468.679H555.022C555.022 379.239 551.802 295.152 545.943 231.908C537.564 141.459 527.784 134.425 524.984 134.425C522.185 134.425 512.425 141.459 504.046 231.908C498.186 295.152 494.967 379.239 494.967 468.679H492.967C492.967 379.213 496.187 295.1 502.066 231.831C508.126 166.338 515.865 133.132 525.004 133.132C534.144 133.132 541.883 166.338 547.943 231.831C553.802 295.1 557.042 379.213 557.042 468.679H557.022Z" fill="#9BB6FF"/>
<path d="M586.917 643.245C577.803 643.245 570.122 625.802 564.093 591.399C558.263 558.163 555.039 513.978 555.039 466.981H557.029C557.029 513.965 560.233 558.136 566.063 591.358C574.401 638.871 584.131 642.566 586.897 642.566C589.663 642.566 599.394 638.871 607.751 591.358C613.582 558.136 616.785 513.965 616.785 466.981H618.775C618.775 513.978 615.571 558.163 609.721 591.399C603.672 625.802 595.991 643.245 586.897 643.245H586.917Z" fill="#9BB6FF"/>
<path d="M680.363 468.34H678.373C678.373 421.356 675.169 377.185 669.359 343.963C661.041 296.45 651.35 292.755 648.584 292.755C645.818 292.755 636.127 296.45 627.81 343.963C621.999 377.185 618.796 421.356 618.796 468.34H616.806C616.806 421.343 620.009 377.158 625.82 343.922C631.829 309.519 639.49 292.076 648.584 292.076C657.678 292.076 665.319 309.519 671.349 343.922C677.159 377.158 680.363 421.343 680.363 468.34Z" fill="#9BB6FF"/>
<path d="M709.996 688.755C700.848 688.755 693.124 666.842 687.046 623.622C681.188 581.869 677.958 526.361 677.958 467.321H679.964C679.964 526.344 683.194 581.835 689.052 623.57C697.437 683.259 707.207 687.901 709.996 687.901C712.784 687.901 722.554 683.259 730.939 623.57C736.797 581.835 740.027 526.344 740.027 467.321H742.033C742.033 526.361 738.803 581.869 732.946 623.622C726.887 666.842 719.164 688.755 709.996 688.755Z" fill="#9BB6FF"/>
<path d="M804.042 468H802.045C802.045 343.254 798.809 225.975 792.957 137.767C784.568 11.6143 774.801 1.80347 772.004 1.80347C769.208 1.80347 759.441 11.6143 751.052 137.767C745.18 225.975 741.964 343.254 741.964 468H739.967C739.967 343.218 743.202 225.902 749.055 137.659C755.127 46.3131 762.857 0 772.004 0C781.152 0 788.882 46.3131 794.954 137.659C800.826 225.902 804.042 343.218 804.042 468Z" fill="#9BB6FF"/>
<path d="M833.724 643.245C824.591 643.245 816.91 625.802 810.861 591.399C805.01 558.163 801.807 513.978 801.807 466.981H803.797C803.797 513.965 807.02 558.136 812.85 591.358C821.208 638.871 830.939 642.566 833.724 642.566C836.51 642.566 846.241 638.871 854.598 591.358C860.449 558.136 863.652 513.965 863.652 466.981H865.642C865.642 513.978 862.419 558.163 856.588 591.399C850.539 625.802 842.838 643.245 833.724 643.245Z" fill="#9BB6FF"/>
<path d="M927.309 468.34H925.319C925.319 421.356 922.116 377.185 916.285 343.963C907.968 296.45 898.257 292.755 895.471 292.755C892.685 292.755 882.994 296.45 874.657 343.963C868.826 377.185 865.623 421.356 865.623 468.34H863.633C863.633 421.343 866.836 377.158 872.667 343.922C878.696 309.519 886.357 292.076 895.451 292.076C904.545 292.076 912.206 309.519 918.255 343.922C924.086 377.158 927.289 421.343 927.289 468.34H927.309Z" fill="#9BB6FF"/>
<path d="M957.158 643.245C948.064 643.245 940.383 625.802 934.353 591.399C928.523 558.163 925.319 513.978 925.319 466.981H927.309C927.309 513.965 930.513 558.136 936.343 591.358C944.681 638.871 954.372 642.566 957.158 642.566C959.943 642.566 969.634 638.871 977.972 591.358C983.802 558.136 987.006 513.965 987.006 466.981H988.996C988.996 513.978 985.792 558.163 979.962 591.399C973.932 625.802 966.271 643.245 957.177 643.245H957.158Z" fill="#9BB6FF"/>
<path d="M1051.04 468.679H1049.04C1049.04 389.921 1045.82 315.877 1039.95 260.187C1031.57 180.54 1021.81 174.346 1019 174.346C1016.2 174.346 1006.44 180.54 998.052 260.187C992.189 315.877 988.967 389.921 988.967 468.679H986.966C986.966 389.898 990.188 315.831 996.051 260.118C1002.11 202.447 1009.84 173.208 1018.98 173.208C1028.13 173.208 1035.85 202.447 1041.92 260.118C1047.78 315.831 1051 389.898 1051 468.679H1051.04Z" fill="#9BB6FF"/>
<path d="M1080.47 688.755C1071.48 688.755 1063.88 666.775 1057.91 623.422C1052.14 581.541 1048.97 525.863 1048.97 466.642H1050.94C1050.94 525.846 1054.11 581.507 1059.88 623.37C1068.13 683.243 1077.74 687.899 1080.49 687.899C1083.25 687.899 1092.86 683.243 1101.11 623.37C1106.88 581.507 1110.05 525.846 1110.05 466.642H1112.02C1112.02 525.863 1108.85 581.541 1103.08 623.422C1097.11 666.775 1089.51 688.755 1080.51 688.755H1080.47Z" fill="#9BB6FF"/>
<path d="M1173.9 468.34H1171.91C1171.91 421.356 1168.7 377.185 1162.89 343.963C1154.59 296.45 1144.9 292.755 1142.14 292.755C1139.37 292.755 1129.7 296.45 1121.38 343.963C1115.57 377.185 1112.37 421.356 1112.37 468.34H1110.38C1110.38 421.343 1113.58 377.158 1119.39 343.922C1125.4 309.519 1133.06 292.076 1142.14 292.076C1151.21 292.076 1158.85 309.519 1164.88 343.922C1170.69 377.158 1173.9 421.343 1173.9 468.34Z" fill="#9BB6FF"/>
<path d="M1203.66 643.245C1194.59 643.245 1186.95 625.802 1180.92 591.399C1175.11 558.163 1171.9 513.978 1171.9 466.981H1173.89C1173.89 513.965 1177.1 558.136 1182.91 591.358C1191.21 638.871 1200.9 642.566 1203.66 642.566C1206.43 642.566 1216.1 638.871 1224.42 591.358C1230.23 558.136 1233.43 513.965 1233.43 466.981H1235.42C1235.42 513.978 1232.22 558.163 1226.41 591.399C1220.4 625.802 1212.74 643.245 1203.66 643.245Z" fill="#9BB6FF"/>
<path d="M1297.23 468.34H1295.24C1295.24 421.356 1292.01 377.185 1286.18 343.963C1277.85 296.45 1268.12 292.755 1265.33 292.755C1262.54 292.755 1252.81 296.45 1244.48 343.963C1238.65 377.185 1235.42 421.356 1235.42 468.34H1233.43C1233.43 421.343 1236.66 377.158 1242.49 343.922C1248.54 309.519 1256.22 292.076 1265.33 292.076C1274.44 292.076 1282.13 309.519 1288.17 343.922C1294 377.158 1297.23 421.343 1297.23 468.34Z" fill="#9BB6FF"/>
<path d="M1326.98 711.17C1317.82 711.17 1310.11 687.039 1304.03 639.443C1298.18 593.465 1294.94 532.338 1294.94 467.321H1296.94C1296.94 532.319 1300.18 593.427 1306.03 639.387C1314.41 705.118 1324.18 710.23 1326.98 710.23C1329.78 710.23 1339.55 705.118 1347.92 639.387C1353.78 593.427 1357.02 532.319 1357.02 467.321H1359.02C1359.02 532.338 1355.78 593.465 1349.92 639.443C1343.85 687.039 1336.13 711.17 1326.98 711.17Z" fill="#9BB6FF"/>
<path d="M1420.98 468.679H1418.98C1418.98 399.336 1415.76 334.143 1409.9 285.11C1401.53 214.984 1391.77 209.531 1388.97 209.531C1386.16 209.531 1376.4 214.984 1368.03 285.11C1362.18 334.143 1358.95 399.336 1358.95 468.679H1356.95C1356.95 399.316 1360.18 334.103 1366.05 285.05C1372.12 234.273 1379.83 208.528 1388.99 208.528C1398.14 208.528 1405.86 234.273 1411.93 285.05C1417.78 334.103 1421.02 399.316 1421.02 468.679H1420.98Z" fill="#9BB6FF"/>
<path d="M1450.45 643.245C1441.36 643.245 1433.7 625.802 1427.67 591.399C1421.86 558.163 1418.63 513.978 1418.63 466.981H1420.62C1420.62 513.965 1423.83 558.136 1429.64 591.358C1437.95 638.871 1447.64 642.566 1450.43 642.566C1453.22 642.566 1462.91 638.871 1471.22 591.358C1477.04 558.136 1480.24 513.965 1480.24 466.981H1482.23C1482.23 513.978 1479.03 558.163 1473.19 591.399C1467.17 625.802 1459.5 643.245 1450.41 643.245H1450.45Z" fill="#9BB6FF"/>
<path d="M1544.01 468.34H1542.02C1542.02 421.356 1538.82 377.185 1532.99 343.963C1524.65 296.45 1514.92 292.755 1512.16 292.755C1509.39 292.755 1499.66 296.45 1491.32 343.963C1485.49 377.185 1482.29 421.356 1482.29 468.34H1480.3C1480.3 421.343 1483.5 377.158 1489.35 343.922C1495.38 309.519 1503.06 292.076 1512.18 292.076C1521.29 292.076 1528.97 309.519 1535 343.922C1540.83 377.158 1544.05 421.343 1544.05 468.34H1544.01Z" fill="#9BB6FF"/>
<path d="M1574 720C1564.83 720 1557.11 694.995 1551.05 645.676C1545.18 598.032 1541.94 534.692 1541.94 467.321H1543.94C1543.94 534.673 1547.16 597.993 1553.03 645.618C1561.41 713.729 1571.2 719.026 1573.98 719.026C1576.76 719.026 1586.54 713.729 1594.93 645.618C1600.79 597.993 1604.01 534.673 1604.01 467.321H1606.02C1606.02 534.692 1602.79 598.032 1596.91 645.676C1590.85 694.995 1583.12 720 1573.96 720H1574Z" fill="#9BB6FF"/>
<path d="M1666.99 468H1665.02C1665.02 410.606 1661.84 356.647 1656.08 316.064C1647.82 258.023 1638.21 253.509 1635.47 253.509C1632.73 253.509 1623.11 258.023 1614.86 316.064C1609.1 356.647 1605.92 410.606 1605.92 468H1603.95C1603.95 410.589 1607.13 356.614 1612.89 316.014C1618.85 273.987 1626.45 252.679 1635.47 252.679C1644.49 252.679 1652.07 273.987 1658.05 316.014C1663.81 356.614 1666.99 410.589 1666.99 468Z" fill="#9BB6FF"/>
<path d="M1697.14 643.245C1688.06 643.245 1680.4 625.802 1674.37 591.399C1668.56 558.163 1665.36 513.978 1665.36 466.981H1667.35C1667.35 513.965 1670.55 558.136 1676.36 591.358C1684.68 638.871 1694.37 642.566 1697.14 642.566C1699.9 642.566 1709.59 638.871 1717.91 591.358C1723.72 558.136 1726.92 513.965 1726.92 466.981H1728.91C1728.91 513.978 1725.71 558.163 1719.9 591.399C1713.87 625.802 1706.23 643.245 1697.14 643.245Z" fill="#9BB6FF"/>
<path d="M1790.76 468.34H1788.77C1788.77 421.356 1785.55 377.185 1779.72 343.963C1771.36 296.45 1761.63 292.755 1758.84 292.755C1756.06 292.755 1746.33 296.45 1737.97 343.963C1732.12 377.185 1728.92 421.356 1728.92 468.34H1726.93C1726.93 421.343 1730.15 377.158 1735.98 343.922C1742.03 309.518 1749.73 292.075 1758.84 292.075C1767.96 292.075 1775.66 309.518 1781.71 343.922C1787.56 377.158 1790.76 421.343 1790.76 468.34Z" fill="#9BB6FF"/>
<path d="M1820.71 643.245C1811.6 643.245 1803.9 625.802 1797.85 591.398C1792 558.163 1788.79 513.978 1788.79 466.981H1790.78C1790.78 513.964 1794.01 558.136 1799.84 591.358C1808.19 638.871 1817.92 642.566 1820.71 642.566C1823.5 642.566 1833.23 638.871 1841.58 591.358C1847.43 558.136 1850.64 513.964 1850.64 466.981H1852.63C1852.63 513.978 1849.4 558.163 1843.57 591.398C1837.52 625.802 1829.82 643.245 1820.71 643.245Z" fill="#9BB6FF"/>
<path d="M1913.99 468.679H1912.02C1912.02 372.721 1908.85 282.506 1903.08 214.654C1894.82 117.613 1885.23 110.066 1882.47 110.066C1879.71 110.066 1870.12 117.613 1861.86 214.654C1856.09 282.506 1852.92 372.721 1852.92 468.679H1850.95C1850.95 372.693 1854.12 282.45 1859.89 214.571C1865.86 144.305 1873.45 108.679 1882.47 108.679C1891.49 108.679 1899.06 144.305 1905.05 214.571C1910.82 282.45 1913.99 372.693 1913.99 468.679Z" fill="#9BB6FF"/>
<path d="M1944.14 643.245C1935.05 643.245 1927.39 625.802 1921.36 591.398C1915.53 558.163 1912.32 513.978 1912.32 466.981H1914.31C1914.31 513.964 1917.52 558.136 1923.35 591.358C1931.66 638.871 1941.38 642.566 1944.16 642.566C1946.95 642.566 1956.64 638.871 1964.98 591.358C1970.81 558.136 1974.01 513.964 1974.01 466.981H1976C1976 513.978 1972.8 558.163 1966.97 591.398C1960.94 625.802 1953.28 643.245 1944.16 643.245H1944.14Z" fill="#9BB6FF"/>
<path d="M4011.7 468.34H4009.71C4009.71 421.356 4006.5 377.185 4000.67 343.963C3992.33 296.45 3982.62 292.755 3979.86 292.755C3977.09 292.755 3967.36 296.45 3959.02 343.963C3953.19 377.185 3949.99 421.356 3949.99 468.34H3948C3948 421.343 3951.2 377.158 3957.03 343.922C3963.06 309.519 3970.74 292.076 3979.86 292.076C3988.97 292.076 3996.63 309.519 4002.66 343.922C4008.49 377.158 4011.7 421.343 4011.7 468.34Z" fill="#9BB6FF"/>
<path d="M4041.56 643.245C4032.47 643.245 4024.79 625.802 4018.76 591.399C4012.93 558.163 4009.73 513.978 4009.73 466.981H4011.72C4011.72 513.965 4014.92 558.136 4020.75 591.358C4029.09 638.871 4038.8 642.566 4041.58 642.566C4044.37 642.566 4054.08 638.871 4062.42 591.358C4068.25 558.136 4071.45 513.965 4071.45 466.981H4073.44C4073.44 513.978 4070.24 558.163 4064.41 591.399C4058.38 625.802 4050.7 643.245 4041.6 643.245H4041.56Z" fill="#9BB6FF"/>
<path d="M4135.04 468H4133.03C4133.03 354.842 4129.8 248.456 4123.94 168.442C4115.57 54.0072 4105.81 45.1076 4103.02 45.1076C4100.23 45.1076 4090.47 54.0072 4082.08 168.442C4076.22 248.456 4072.99 354.842 4072.99 468H4070.98C4070.98 354.809 4074.22 248.39 4080.08 168.344C4086.14 85.4828 4093.87 43.4717 4103.02 43.4717C4112.17 43.4717 4119.88 85.4828 4125.97 168.344C4131.83 248.39 4135.06 354.809 4135.06 468H4135.04Z" fill="#9BB6FF"/>
<path d="M4164.51 688.755C4155.51 688.755 4147.92 666.842 4141.94 623.621C4136.17 581.869 4132.99 526.361 4132.99 467.321H4134.97C4134.97 526.344 4138.15 581.835 4143.91 623.57C4152.15 683.259 4161.77 687.901 4164.51 687.901C4167.26 687.901 4176.86 683.259 4185.11 623.57C4190.88 581.835 4194.06 526.344 4194.06 467.321H4196.03C4196.03 526.361 4192.85 581.869 4187.09 623.621C4181.12 666.842 4173.52 688.755 4164.51 688.755Z" fill="#9BB6FF"/>
<path d="M4258.04 468.679H4256.04C4256.04 408.388 4252.81 351.706 4246.95 309.075C4238.56 248.104 4228.78 243.362 4226 243.362C4223.23 243.362 4213.43 248.104 4205.06 309.075C4199.2 351.706 4195.97 408.388 4195.97 468.679H4193.97C4193.97 408.371 4197.2 351.671 4203.06 309.022C4209.14 264.874 4216.85 242.491 4226 242.491C4235.16 242.491 4242.87 264.874 4248.95 309.022C4254.8 351.671 4258.04 408.371 4258.04 468.679Z" fill="#9BB6FF"/>
<path d="M4288.15 643.245C4279.04 643.245 4271.36 625.802 4265.31 591.399C4259.48 558.163 4256.25 513.978 4256.25 466.981H4258.24C4258.24 513.965 4261.47 558.136 4267.3 591.358C4275.66 638.871 4285.39 642.566 4288.15 642.566C4290.92 642.566 4300.67 638.871 4309.01 591.358C4314.84 558.136 4318.06 513.965 4318.06 466.981H4320.05C4320.05 513.978 4316.83 558.163 4311 591.399C4304.95 625.802 4297.27 643.245 4288.15 643.245Z" fill="#9BB6FF"/>
<path d="M4381.66 468.34H4379.67C4379.67 421.356 4376.46 377.185 4370.65 343.963C4362.34 296.45 4352.64 292.755 4349.86 292.755C4347.07 292.755 4337.38 296.45 4329.06 343.963C4323.25 377.185 4320.05 421.356 4320.05 468.34H4318.06C4318.06 421.343 4321.26 377.158 4327.09 343.922C4333.12 309.519 4340.79 292.076 4349.88 292.076C4358.97 292.076 4366.63 309.519 4372.66 343.922C4378.47 377.158 4381.7 421.343 4381.7 468.34H4381.66Z" fill="#9BB6FF"/>
<path d="M4411.53 702.34C4402.52 702.34 4394.92 679.082 4388.95 633.211C4383.19 588.897 4379.99 529.983 4379.99 467.321H4381.96C4381.96 529.965 4385.14 588.86 4390.9 633.156C4399.15 696.507 4408.75 701.434 4411.51 701.434C4414.27 701.434 4423.88 696.507 4432.13 633.156C4437.89 588.86 4441.06 529.965 4441.06 467.321H4443.03C4443.03 529.983 4439.86 588.897 4434.08 633.211C4428.1 679.082 4420.51 702.34 4411.49 702.34H4411.53Z" fill="#9BB6FF"/>
<path d="M4505.02 468.679H4503.02C4503.02 379.239 4499.8 295.152 4493.94 231.908C4485.56 141.459 4475.78 134.425 4472.98 134.425C4470.18 134.425 4460.43 141.459 4452.05 231.908C4446.19 295.152 4442.97 379.239 4442.97 468.679H4440.97C4440.97 379.213 4444.19 295.1 4450.07 231.831C4456.13 166.338 4463.87 133.132 4473 133.132C4482.14 133.132 4489.88 166.338 4495.94 231.831C4501.8 295.1 4505.04 379.213 4505.04 468.679H4505.02Z" fill="#9BB6FF"/>
<path d="M4534.92 643.245C4525.8 643.245 4518.12 625.802 4512.09 591.399C4506.26 558.163 4503.04 513.978 4503.04 466.981H4505.03C4505.03 513.965 4508.23 558.136 4514.06 591.358C4522.4 638.871 4532.13 642.566 4534.9 642.566C4537.66 642.566 4547.39 638.871 4555.75 591.358C4561.58 558.136 4564.79 513.965 4564.79 466.981H4566.78C4566.78 513.978 4563.57 558.163 4557.72 591.399C4551.67 625.802 4543.99 643.245 4534.9 643.245H4534.92Z" fill="#9BB6FF"/>
<path d="M4628.36 468.34H4626.37C4626.37 421.356 4623.17 377.185 4617.36 343.963C4609.04 296.45 4599.35 292.755 4596.58 292.755C4593.82 292.755 4584.13 296.45 4575.81 343.963C4570 377.185 4566.8 421.356 4566.8 468.34H4564.81C4564.81 421.343 4568.01 377.158 4573.82 343.922C4579.83 309.519 4587.49 292.076 4596.58 292.076C4605.68 292.076 4613.32 309.519 4619.35 343.922C4625.16 377.158 4628.36 421.343 4628.36 468.34Z" fill="#9BB6FF"/>
<path d="M4658 688.755C4648.85 688.755 4641.12 666.842 4635.05 623.622C4629.19 581.869 4625.96 526.361 4625.96 467.321H4627.96C4627.96 526.344 4631.19 581.835 4637.05 623.57C4645.44 683.259 4655.21 687.901 4658 687.901C4660.78 687.901 4670.55 683.259 4678.94 623.57C4684.8 581.835 4688.03 526.344 4688.03 467.321H4690.03C4690.03 526.361 4686.8 581.869 4680.95 623.622C4674.89 666.842 4667.16 688.755 4658 688.755Z" fill="#9BB6FF"/>
<path d="M4752.04 468H4750.04C4750.04 343.254 4746.81 225.975 4740.96 137.767C4732.57 11.6143 4722.8 1.80347 4720 1.80347C4717.21 1.80347 4707.44 11.6143 4699.05 137.767C4693.18 225.975 4689.96 343.254 4689.96 468H4687.97C4687.97 343.218 4691.2 225.902 4697.05 137.659C4703.13 46.3131 4710.86 0 4720 0C4729.15 0 4736.88 46.3131 4742.95 137.659C4748.83 225.902 4752.04 343.218 4752.04 468Z" fill="#9BB6FF"/>
<path d="M4781.72 643.245C4772.59 643.245 4764.91 625.802 4758.86 591.399C4753.01 558.163 4749.81 513.978 4749.81 466.981H4751.8C4751.8 513.965 4755.02 558.136 4760.85 591.358C4769.21 638.871 4778.94 642.566 4781.72 642.566C4784.51 642.566 4794.24 638.871 4802.6 591.358C4808.45 558.136 4811.65 513.965 4811.65 466.981H4813.64C4813.64 513.978 4810.42 558.163 4804.59 591.399C4798.54 625.802 4790.84 643.245 4781.72 643.245Z" fill="#9BB6FF"/>
<path d="M4875.31 468.34H4873.32C4873.32 421.356 4870.12 377.185 4864.29 343.963C4855.97 296.45 4846.26 292.755 4843.47 292.755C4840.69 292.755 4830.99 296.45 4822.66 343.963C4816.83 377.185 4813.62 421.356 4813.62 468.34H4811.63C4811.63 421.343 4814.84 377.158 4820.67 343.922C4826.7 309.519 4834.36 292.076 4843.45 292.076C4852.54 292.076 4860.21 309.519 4866.26 343.922C4872.09 377.158 4875.29 421.343 4875.29 468.34H4875.31Z" fill="#9BB6FF"/>
<path d="M4905.16 643.245C4896.06 643.245 4888.38 625.802 4882.35 591.399C4876.52 558.163 4873.32 513.978 4873.32 466.981H4875.31C4875.31 513.965 4878.51 558.136 4884.34 591.358C4892.68 638.871 4902.37 642.566 4905.16 642.566C4907.94 642.566 4917.63 638.871 4925.97 591.358C4931.8 558.136 4935.01 513.965 4935.01 466.981H4937C4937 513.978 4933.79 558.163 4927.96 591.399C4921.93 625.802 4914.27 643.245 4905.18 643.245H4905.16Z" fill="#9BB6FF"/>
<path d="M4999.04 468.679H4997.04C4997.04 389.921 4993.82 315.877 4987.95 260.187C4979.57 180.54 4969.81 174.346 4967 174.346C4964.2 174.346 4954.44 180.54 4946.05 260.187C4940.19 315.877 4936.97 389.921 4936.97 468.679H4934.97C4934.97 389.898 4938.19 315.831 4944.05 260.118C4950.11 202.447 4957.84 173.208 4966.98 173.208C4976.13 173.208 4983.85 202.447 4989.92 260.118C4995.78 315.831 4999 389.898 4999 468.679H4999.04Z" fill="#9BB6FF"/>
<path d="M5028.47 688.755C5019.48 688.755 5011.88 666.775 5005.91 623.422C5000.14 581.541 4996.97 525.863 4996.97 466.642H4998.94C4998.94 525.846 5002.11 581.507 5007.88 623.37C5016.13 683.243 5025.74 687.899 5028.49 687.899C5031.25 687.899 5040.86 683.243 5049.11 623.37C5054.88 581.507 5058.05 525.846 5058.05 466.642H5060.02C5060.02 525.863 5056.85 581.541 5051.08 623.422C5045.11 666.775 5037.51 688.755 5028.51 688.755H5028.47Z" fill="#9BB6FF"/>
<path d="M5121.9 468.34H5119.91C5119.91 421.356 5116.7 377.185 5110.89 343.963C5102.59 296.45 5092.9 292.755 5090.14 292.755C5087.37 292.755 5077.7 296.45 5069.38 343.963C5063.57 377.185 5060.37 421.356 5060.37 468.34H5058.38C5058.38 421.343 5061.58 377.158 5067.39 343.922C5073.4 309.519 5081.06 292.076 5090.14 292.076C5099.21 292.076 5106.85 309.519 5112.88 343.922C5118.69 377.158 5121.9 421.343 5121.9 468.34Z" fill="#9BB6FF"/>
<path d="M5151.66 643.245C5142.59 643.245 5134.95 625.802 5128.92 591.399C5123.11 558.163 5119.9 513.978 5119.9 466.981H5121.89C5121.89 513.965 5125.1 558.136 5130.91 591.358C5139.21 638.871 5148.9 642.566 5151.66 642.566C5154.43 642.566 5164.1 638.871 5172.42 591.358C5178.23 558.136 5181.43 513.965 5181.43 466.981H5183.42C5183.42 513.978 5180.22 558.163 5174.41 591.399C5168.4 625.802 5160.74 643.245 5151.66 643.245Z" fill="#9BB6FF"/>
<path d="M5245.23 468.34H5243.24C5243.24 421.356 5240.01 377.185 5234.18 343.963C5225.85 296.45 5216.12 292.755 5213.33 292.755C5210.54 292.755 5200.81 296.45 5192.48 343.963C5186.65 377.185 5183.42 421.356 5183.42 468.34H5181.43C5181.43 421.343 5184.66 377.158 5190.49 343.922C5196.54 309.519 5204.22 292.076 5213.33 292.076C5222.44 292.076 5230.13 309.519 5236.17 343.922C5242 377.158 5245.23 421.343 5245.23 468.34Z" fill="#9BB6FF"/>
<path d="M5274.98 711.17C5265.82 711.17 5258.11 687.039 5252.03 639.443C5246.18 593.465 5242.94 532.338 5242.94 467.321H5244.94C5244.94 532.319 5248.18 593.427 5254.03 639.387C5262.41 705.118 5272.18 710.23 5274.98 710.23C5277.78 710.23 5287.55 705.118 5295.92 639.387C5301.78 593.427 5305.02 532.319 5305.02 467.321H5307.02C5307.02 532.338 5303.78 593.465 5297.92 639.443C5291.85 687.039 5284.13 711.17 5274.98 711.17Z" fill="#9BB6FF"/>
<path d="M5368.98 468.679H5366.98C5366.98 399.336 5363.76 334.143 5357.9 285.11C5349.53 214.984 5339.77 209.531 5336.97 209.531C5334.16 209.531 5324.4 214.984 5316.03 285.11C5310.18 334.143 5306.95 399.336 5306.95 468.679H5304.95C5304.95 399.316 5308.18 334.103 5314.05 285.05C5320.12 234.273 5327.83 208.528 5336.99 208.528C5346.14 208.528 5353.86 234.273 5359.93 285.05C5365.78 334.103 5369.02 399.316 5369.02 468.679H5368.98Z" fill="#9BB6FF"/>
<path d="M5398.45 643.245C5389.36 643.245 5381.7 625.802 5375.67 591.399C5369.86 558.163 5366.63 513.978 5366.63 466.981H5368.62C5368.62 513.965 5371.83 558.136 5377.64 591.358C5385.95 638.871 5395.64 642.566 5398.43 642.566C5401.22 642.566 5410.91 638.871 5419.22 591.358C5425.04 558.136 5428.24 513.965 5428.24 466.981H5430.23C5430.23 513.978 5427.03 558.163 5421.19 591.399C5415.17 625.802 5407.5 643.245 5398.41 643.245H5398.45Z" fill="#9BB6FF"/>
<path d="M5492.01 468.34H5490.02C5490.02 421.356 5486.82 377.185 5480.99 343.963C5472.65 296.45 5462.92 292.755 5460.16 292.755C5457.39 292.755 5447.66 296.45 5439.32 343.963C5433.49 377.185 5430.29 421.356 5430.29 468.34H5428.3C5428.3 421.343 5431.5 377.158 5437.35 343.922C5443.38 309.519 5451.06 292.076 5460.18 292.076C5469.29 292.076 5476.97 309.519 5483 343.922C5488.83 377.158 5492.05 421.343 5492.05 468.34H5492.01Z" fill="#9BB6FF"/>
<path d="M5522 720C5512.83 720 5505.11 694.995 5499.05 645.676C5493.18 598.032 5489.94 534.692 5489.94 467.321H5491.94C5491.94 534.673 5495.16 597.993 5501.03 645.618C5509.41 713.729 5519.2 719.026 5521.98 719.026C5524.76 719.026 5534.54 713.729 5542.93 645.618C5548.79 597.993 5552.01 534.673 5552.01 467.321H5554.02C5554.02 534.692 5550.79 598.032 5544.91 645.676C5538.85 694.995 5531.12 720 5521.96 720H5522Z" fill="#9BB6FF"/>
<path d="M5614.99 468H5613.02C5613.02 410.606 5609.84 356.647 5604.08 316.064C5595.82 258.023 5586.21 253.509 5583.47 253.509C5580.73 253.509 5571.11 258.023 5562.86 316.064C5557.1 356.647 5553.92 410.606 5553.92 468H5551.95C5551.95 410.589 5555.13 356.614 5560.89 316.014C5566.85 273.987 5574.45 252.679 5583.47 252.679C5592.49 252.679 5600.07 273.987 5606.05 316.014C5611.81 356.614 5614.99 410.589 5614.99 468Z" fill="#9BB6FF"/>
<path d="M5645.14 643.245C5636.06 643.245 5628.4 625.802 5622.37 591.399C5616.56 558.163 5613.36 513.978 5613.36 466.981H5615.35C5615.35 513.965 5618.55 558.136 5624.36 591.358C5632.68 638.871 5642.37 642.566 5645.14 642.566C5647.9 642.566 5657.59 638.871 5665.91 591.358C5671.72 558.136 5674.92 513.965 5674.92 466.981H5676.91C5676.91 513.978 5673.71 558.163 5667.9 591.399C5661.87 625.802 5654.23 643.245 5645.14 643.245Z" fill="#9BB6FF"/>
<path d="M5738.76 468.34H5736.77C5736.77 421.356 5733.55 377.185 5727.72 343.963C5719.36 296.45 5709.63 292.755 5706.84 292.755C5704.06 292.755 5694.33 296.45 5685.97 343.963C5680.12 377.185 5676.92 421.356 5676.92 468.34H5674.93C5674.93 421.343 5678.15 377.158 5683.98 343.922C5690.03 309.518 5697.73 292.075 5706.84 292.075C5715.96 292.075 5723.66 309.518 5729.71 343.922C5735.56 377.158 5738.76 421.343 5738.76 468.34Z" fill="#9BB6FF"/>
<path d="M5768.71 643.245C5759.6 643.245 5751.9 625.802 5745.85 591.398C5740 558.163 5736.79 513.978 5736.79 466.981H5738.78C5738.78 513.964 5742.01 558.136 5747.84 591.358C5756.19 638.871 5765.92 642.566 5768.71 642.566C5771.5 642.566 5781.23 638.871 5789.58 591.358C5795.43 558.136 5798.64 513.964 5798.64 466.981H5800.63C5800.63 513.978 5797.4 558.163 5791.57 591.398C5785.52 625.802 5777.82 643.245 5768.71 643.245Z" fill="#9BB6FF"/>
<path d="M5861.99 468.679H5860.02C5860.02 372.721 5856.85 282.506 5851.08 214.654C5842.82 117.613 5833.23 110.066 5830.47 110.066C5827.71 110.066 5818.12 117.613 5809.86 214.654C5804.09 282.506 5800.92 372.721 5800.92 468.679H5798.95C5798.95 372.693 5802.12 282.45 5807.89 214.571C5813.86 144.305 5821.45 108.679 5830.47 108.679C5839.49 108.679 5847.06 144.305 5853.05 214.571C5858.82 282.45 5861.99 372.693 5861.99 468.679Z" fill="#9BB6FF"/>
<path d="M5892.14 643.245C5883.05 643.245 5875.39 625.802 5869.36 591.398C5863.53 558.163 5860.32 513.978 5860.32 466.981H5862.31C5862.31 513.964 5865.52 558.136 5871.35 591.358C5879.66 638.871 5889.38 642.566 5892.16 642.566C5894.95 642.566 5904.64 638.871 5912.98 591.358C5918.81 558.136 5922.01 513.964 5922.01 466.981H5924C5924 513.978 5920.8 558.163 5914.97 591.398C5908.94 625.802 5901.28 643.245 5892.16 643.245H5892.14Z" fill="#9BB6FF"/>
</svg>
