<svg width="5464" height="480" viewBox="0 0 5464 480" fill="none" xmlns="http://www.w3.org/2000/svg">
<path d="M1879.49 312.226H1877.65C1877.65 280.904 1874.7 251.457 1869.32 229.309C1861.63 197.633 1852.67 195.17 1850.12 195.17C1847.57 195.17 1838.59 197.633 1830.9 229.309C1825.53 251.457 1822.57 280.904 1822.57 312.226H1820.74C1820.74 280.895 1823.69 251.438 1829.07 229.281C1834.63 206.346 1841.71 194.717 1850.12 194.717C1858.53 194.717 1865.59 206.346 1871.15 229.281C1876.53 251.438 1879.49 280.895 1879.49 312.226Z" fill="#9BB6FF"/>
<path d="M1907.02 428.83C1898.63 428.83 1891.55 417.202 1885.99 394.266C1880.61 372.109 1877.65 342.652 1877.65 311.321H1879.49C1879.49 342.643 1882.44 372.091 1887.82 394.239C1895.51 425.914 1904.47 428.378 1907.04 428.378C1909.61 428.378 1918.56 425.914 1926.26 394.239C1931.63 372.091 1934.59 342.643 1934.59 311.321H1936.42C1936.42 342.652 1933.47 372.109 1928.09 394.266C1922.53 417.202 1915.44 428.83 1907.06 428.83H1907.02Z" fill="#9BB6FF"/>
<path d="M1993.24 312H1991.38C1991.38 236.561 1988.4 165.637 1983 112.295C1975.28 36.0049 1966.28 30.0719 1963.7 30.0719C1961.13 30.0719 1952.13 36.0049 1944.39 112.295C1938.99 165.637 1936.01 236.561 1936.01 312H1934.15C1934.15 236.539 1937.14 165.594 1942.54 112.229C1948.13 56.9887 1955.26 28.9813 1963.7 28.9813C1972.15 28.9813 1979.26 56.9887 1984.87 112.229C1990.27 165.594 1993.25 236.539 1993.25 312H1993.24Z" fill="#9BB6FF"/>
<path d="M2020.43 459.169C2012.12 459.169 2005.13 444.561 1999.61 415.747C1994.29 387.912 1991.36 350.907 1991.36 311.547H1993.18C1993.18 350.896 1996.11 387.889 2001.43 415.713C2009.03 455.506 2017.9 458.6 2020.43 458.6C2022.96 458.6 2031.81 455.506 2039.43 415.713C2044.75 387.889 2047.68 350.896 2047.68 311.547H2049.5C2049.5 350.907 2046.57 387.912 2041.25 415.747C2035.75 444.561 2028.74 459.169 2020.43 459.169Z" fill="#9BB6FF"/>
<path d="M2106.67 312.453H2104.83C2104.83 272.259 2101.84 234.471 2096.44 206.05C2088.7 165.403 2079.69 162.242 2077.12 162.242C2074.56 162.242 2065.53 165.403 2057.81 206.05C2052.4 234.471 2049.42 272.259 2049.42 312.453H2047.57C2047.57 272.247 2050.56 234.448 2055.96 206.015C2061.57 176.583 2068.68 161.661 2077.12 161.661C2085.57 161.661 2092.68 176.583 2098.29 206.015C2103.69 234.448 2106.67 272.247 2106.67 312.453Z" fill="#9BB6FF"/>
<path d="M2134.43 428.83C2126.02 428.83 2118.94 417.202 2113.36 394.266C2107.98 372.109 2105.01 342.652 2105.01 311.321H2106.85C2106.85 342.643 2109.82 372.091 2115.2 394.239C2122.9 425.914 2131.88 428.378 2134.43 428.378C2136.98 428.378 2145.98 425.914 2153.67 394.239C2159.04 372.091 2162.02 342.643 2162.02 311.321H2163.85C2163.85 342.652 2160.88 372.109 2155.5 394.266C2149.92 417.202 2142.84 428.83 2134.43 428.83Z" fill="#9BB6FF"/>
<path d="M2220.71 312.227H2218.87C2218.87 280.904 2215.92 251.457 2210.56 229.309C2202.89 197.633 2193.95 195.17 2191.38 195.17C2188.81 195.17 2179.87 197.633 2172.2 229.309C2166.84 251.457 2163.89 280.904 2163.89 312.227H2162.05C2162.05 280.895 2165.01 251.439 2170.38 229.282C2175.94 206.346 2183.01 194.717 2191.4 194.717C2199.79 194.717 2206.85 206.346 2212.41 229.282C2217.77 251.439 2220.75 280.895 2220.75 312.227H2220.71Z" fill="#9BB6FF"/>
<path d="M2248.27 468.226C2239.95 468.226 2232.95 452.722 2227.44 422.14C2222.12 392.598 2219.18 353.322 2219.18 311.547H2221C2221 353.31 2223.92 392.574 2229.24 422.104C2236.84 464.338 2245.7 467.623 2248.25 467.623C2250.8 467.623 2259.66 464.338 2267.26 422.104C2272.57 392.574 2275.5 353.31 2275.5 311.547H2277.32C2277.32 353.322 2274.39 392.598 2269.06 422.14C2263.55 452.722 2256.55 468.226 2248.23 468.226H2248.27Z" fill="#9BB6FF"/>
<path d="M2334.47 312.453H2332.63C2332.63 252.826 2329.66 196.768 2324.25 154.606C2316.52 94.3061 2307.5 89.6167 2304.92 89.6167C2302.34 89.6167 2293.34 94.3061 2285.61 154.606C2280.2 196.768 2277.23 252.826 2277.23 312.453H2275.39C2275.39 252.809 2278.36 196.733 2283.78 154.554C2289.37 110.892 2296.51 88.7546 2304.94 88.7546C2313.37 88.7546 2320.51 110.892 2326.1 154.554C2331.5 196.733 2334.49 252.809 2334.49 312.453H2334.47Z" fill="#9BB6FF"/>
<path d="M2362.06 428.83C2353.65 428.83 2346.57 417.202 2341.01 394.266C2335.63 372.109 2332.65 342.652 2332.65 311.321H2334.49C2334.49 342.643 2337.44 372.091 2342.82 394.239C2350.51 425.914 2359.49 428.378 2362.04 428.378C2364.59 428.378 2373.56 425.914 2381.27 394.239C2386.65 372.091 2389.61 342.643 2389.61 311.321H2391.44C2391.44 342.652 2388.49 372.109 2383.09 394.266C2377.51 417.202 2370.43 428.83 2362.04 428.83H2362.06Z" fill="#9BB6FF"/>
<path d="M2448.24 312.227H2446.4C2446.4 280.904 2443.45 251.457 2438.09 229.309C2430.42 197.633 2421.48 195.17 2418.93 195.17C2416.38 195.17 2407.44 197.633 2399.77 229.309C2394.41 251.457 2391.45 280.904 2391.45 312.227H2389.62C2389.62 280.895 2392.57 251.439 2397.93 229.282C2403.47 206.346 2410.54 194.717 2418.93 194.717C2427.31 194.717 2434.36 206.346 2439.92 229.282C2445.28 251.439 2448.24 280.895 2448.24 312.227Z" fill="#9BB6FF"/>
<path d="M2475.56 459.17C2467.12 459.17 2460 444.561 2454.39 415.748C2448.99 387.913 2446.01 350.907 2446.01 311.547H2447.86C2447.86 350.896 2450.84 387.89 2456.24 415.714C2463.97 455.506 2472.98 458.601 2475.56 458.601C2478.13 458.601 2487.14 455.506 2494.87 415.714C2500.28 387.89 2503.26 350.896 2503.26 311.547H2505.11C2505.11 350.907 2502.13 387.913 2496.72 415.748C2491.14 444.561 2484.01 459.17 2475.56 459.17Z" fill="#9BB6FF"/>
<path d="M2562.32 312H2560.48C2560.48 228.836 2557.49 150.65 2552.1 91.8446C2544.36 7.74289 2535.35 1.20231 2532.77 1.20231C2530.19 1.20231 2521.18 7.74289 2513.45 91.8446C2508.03 150.65 2505.06 228.836 2505.06 312H2503.22C2503.22 228.812 2506.21 150.602 2511.6 91.7725C2517.2 30.8754 2524.33 0 2532.77 0C2541.21 0 2548.34 30.8754 2553.94 91.7725C2559.36 150.602 2562.32 228.812 2562.32 312Z" fill="#9BB6FF"/>
<path d="M2589.69 428.83C2581.27 428.83 2574.19 417.202 2568.61 394.266C2563.21 372.109 2560.25 342.652 2560.25 311.321H2562.09C2562.09 342.643 2565.06 372.091 2570.44 394.239C2578.15 425.914 2587.12 428.378 2589.69 428.378C2592.26 428.378 2601.24 425.914 2608.95 394.239C2614.34 372.091 2617.3 342.643 2617.3 311.321H2619.13C2619.13 342.652 2616.16 372.109 2610.78 394.266C2605.2 417.202 2598.1 428.83 2589.69 428.83Z" fill="#9BB6FF"/>
<path d="M2676.01 312.226H2674.18C2674.18 280.904 2671.22 251.457 2665.84 229.309C2658.17 197.633 2649.22 195.17 2646.65 195.17C2644.08 195.17 2635.14 197.633 2627.45 229.309C2622.07 251.457 2619.12 280.904 2619.12 312.226H2617.28C2617.28 280.895 2620.24 251.438 2625.61 229.281C2631.17 206.346 2638.24 194.717 2646.63 194.717C2655.02 194.717 2662.08 206.346 2667.66 229.281C2673.04 251.438 2675.99 280.895 2675.99 312.226H2676.01Z" fill="#9BB6FF"/>
<path d="M2703.53 428.83C2695.14 428.83 2688.06 417.202 2682.49 394.266C2677.12 372.109 2674.16 342.652 2674.16 311.321H2676C2676 342.643 2678.95 372.091 2684.33 394.239C2692.02 425.914 2700.96 428.378 2703.53 428.378C2706.1 428.378 2715.04 425.914 2722.73 394.239C2728.1 372.091 2731.06 342.643 2731.06 311.321H2732.89C2732.89 342.652 2729.94 372.109 2724.56 394.266C2719 417.202 2711.93 428.83 2703.55 428.83H2703.53Z" fill="#9BB6FF"/>
<path d="M2790.17 312.453H2788.32C2788.32 259.947 2785.35 210.584 2779.94 173.458C2772.21 120.36 2763.2 116.231 2760.62 116.231C2758.03 116.231 2749.03 120.36 2741.29 173.458C2735.88 210.584 2732.91 259.947 2732.91 312.453H2731.07C2731.07 259.932 2734.04 210.554 2739.45 173.412C2745.04 134.965 2752.16 115.472 2760.6 115.472C2769.03 115.472 2776.16 134.965 2781.75 173.412C2787.16 210.554 2790.13 259.932 2790.13 312.453H2790.17Z" fill="#9BB6FF"/>
<path d="M2817.32 459.17C2809.02 459.17 2802.01 444.516 2796.51 415.614C2791.19 387.694 2788.27 350.575 2788.27 311.094H2790.08C2790.08 350.564 2793.01 387.671 2798.33 415.58C2805.94 455.495 2814.8 458.599 2817.34 458.599C2819.88 458.599 2828.75 455.495 2836.35 415.58C2841.67 387.671 2844.6 350.564 2844.6 311.094H2846.41C2846.41 350.575 2843.49 387.694 2838.17 415.614C2832.67 444.516 2825.66 459.17 2817.36 459.17H2817.32Z" fill="#9BB6FF"/>
<path d="M2903.49 312.227H2901.66C2901.66 280.904 2898.7 251.457 2893.34 229.309C2885.69 197.633 2876.75 195.17 2874.2 195.17C2871.65 195.17 2862.73 197.633 2855.06 229.309C2849.7 251.457 2846.74 280.904 2846.74 312.227H2844.91C2844.91 280.895 2847.86 251.439 2853.22 229.282C2858.77 206.346 2865.83 194.717 2874.2 194.717C2882.57 194.717 2889.62 206.346 2895.18 229.282C2900.54 251.439 2903.49 280.895 2903.49 312.227Z" fill="#9BB6FF"/>
<path d="M2930.96 428.83C2922.6 428.83 2915.55 417.202 2909.99 394.266C2904.63 372.109 2901.67 342.652 2901.67 311.321H2903.51C2903.51 342.643 2906.46 372.091 2911.82 394.239C2919.48 425.914 2928.41 428.378 2930.96 428.378C2933.52 428.378 2942.44 425.914 2950.11 394.239C2955.47 372.091 2958.42 342.643 2958.42 311.321H2960.26C2960.26 342.652 2957.3 372.109 2951.94 394.266C2946.4 417.202 2939.33 428.83 2930.96 428.83Z" fill="#9BB6FF"/>
<path d="M3017.22 312.227H3015.38C3015.38 280.904 3012.41 251.457 3007.03 229.309C2999.34 197.633 2990.37 195.17 2987.8 195.17C2985.23 195.17 2976.25 197.633 2968.56 229.309C2963.19 251.457 2960.21 280.904 2960.21 312.227H2958.38C2958.38 280.895 2961.35 251.439 2966.73 229.282C2972.31 206.346 2979.39 194.717 2987.8 194.717C2996.2 194.717 3003.29 206.346 3008.87 229.282C3014.25 251.439 3017.22 280.895 3017.22 312.227Z" fill="#9BB6FF"/>
<path d="M3044.66 474.113C3036.22 474.113 3029.1 458.026 3023.5 426.296C3018.1 395.643 3015.11 354.892 3015.11 311.547H3016.95C3016.95 354.879 3019.94 395.618 3025.34 426.258C3033.07 470.079 3042.08 473.487 3044.66 473.487C3047.24 473.487 3056.26 470.079 3063.98 426.258C3069.38 395.618 3072.37 354.879 3072.37 311.547H3074.21C3074.21 354.892 3071.22 395.643 3065.82 426.296C3060.22 458.026 3053.1 474.113 3044.66 474.113Z" fill="#9BB6FF"/>
<path d="M3131.37 312.453H3129.52C3129.52 266.224 3126.55 222.762 3121.15 190.073C3113.43 143.323 3104.43 139.687 3101.84 139.687C3099.25 139.687 3090.25 143.323 3082.53 190.073C3077.13 222.762 3074.16 266.224 3074.16 312.453H3072.31C3072.31 266.21 3075.28 222.735 3080.7 190.033C3086.3 156.182 3093.41 139.019 3101.86 139.019C3110.3 139.019 3117.42 156.182 3123.02 190.033C3128.41 222.735 3131.41 266.21 3131.41 312.453H3131.37Z" fill="#9BB6FF"/>
<path d="M3158.57 428.83C3150.18 428.83 3143.11 417.202 3137.55 394.266C3132.19 372.109 3129.22 342.652 3129.22 311.321H3131.06C3131.06 342.643 3134.01 372.091 3139.37 394.239C3147.04 425.914 3155.98 428.378 3158.55 428.378C3161.12 428.378 3170.06 425.914 3177.73 394.239C3183.09 372.091 3186.04 342.643 3186.04 311.321H3187.88C3187.88 342.652 3184.92 372.109 3179.55 394.266C3173.98 417.202 3166.92 428.83 3158.53 428.83H3158.57Z" fill="#9BB6FF"/>
<path d="M3244.86 312.227H3243.03C3243.03 280.904 3240.07 251.457 3234.7 229.309C3227.01 197.634 3218.03 195.17 3215.48 195.17C3212.93 195.17 3203.95 197.634 3196.26 229.309C3190.89 251.457 3187.93 280.904 3187.93 312.227H3186.1C3186.1 280.895 3189.05 251.439 3194.45 229.282C3200.01 206.346 3207.09 194.717 3215.5 194.717C3223.9 194.717 3230.99 206.346 3236.55 229.282C3241.93 251.439 3244.9 280.895 3244.9 312.227H3244.86Z" fill="#9BB6FF"/>
<path d="M3272.5 480C3264.05 480 3256.93 463.33 3251.33 430.451C3245.93 398.688 3242.94 356.461 3242.94 311.547H3244.78C3244.78 356.448 3247.75 398.662 3253.16 430.412C3260.89 475.82 3269.92 479.351 3272.49 479.351C3275.05 479.351 3284.08 475.82 3291.81 430.412C3297.22 398.662 3300.19 356.448 3300.19 311.547H3302.04C3302.04 356.461 3299.06 398.688 3293.64 430.451C3288.04 463.33 3280.92 480 3272.47 480H3272.5Z" fill="#9BB6FF"/>
<path d="M3358.3 312H3356.48C3356.48 273.737 3353.55 237.765 3348.23 210.709C3340.62 172.015 3331.75 169.006 3329.22 169.006C3326.69 169.006 3317.83 172.015 3310.22 210.709C3304.9 237.765 3301.97 273.737 3301.97 312H3300.15C3300.15 273.726 3303.08 237.743 3308.4 210.676C3313.9 182.658 3320.9 168.453 3329.22 168.453C3337.54 168.453 3344.53 182.658 3350.05 210.676C3355.37 237.743 3358.3 273.726 3358.3 312Z" fill="#9BB6FF"/>
<path d="M3386.11 428.83C3377.74 428.83 3370.67 417.202 3365.11 394.266C3359.75 372.109 3356.8 342.652 3356.8 311.321H3358.63C3358.63 342.643 3361.59 372.091 3366.95 394.239C3374.62 425.914 3383.56 428.378 3386.11 428.378C3388.66 428.378 3397.6 425.914 3405.27 394.239C3410.63 372.091 3413.58 342.643 3413.58 311.321H3415.42C3415.42 342.652 3412.46 372.109 3407.11 394.266C3401.54 417.202 3394.5 428.83 3386.11 428.83Z" fill="#9BB6FF"/>
<path d="M3472.42 312.226H3470.59C3470.59 280.904 3467.61 251.457 3462.24 229.309C3454.53 197.633 3445.55 195.17 3442.98 195.17C3440.41 195.17 3431.44 197.633 3423.73 229.309C3418.33 251.457 3415.38 280.904 3415.38 312.226H3413.54C3413.54 280.895 3416.52 251.438 3421.9 229.282C3427.47 206.346 3434.58 194.717 3442.98 194.717C3451.39 194.717 3458.49 206.346 3464.07 229.282C3469.47 251.438 3472.42 280.895 3472.42 312.226Z" fill="#9BB6FF"/>
<path d="M3500.04 428.83C3491.64 428.83 3484.53 417.202 3478.95 394.266C3473.56 372.109 3470.6 342.652 3470.6 311.321H3472.44C3472.44 342.643 3475.41 372.091 3480.79 394.239C3488.5 425.914 3497.47 428.378 3500.04 428.378C3502.61 428.378 3511.59 425.914 3519.3 394.239C3524.69 372.091 3527.65 342.643 3527.65 311.321H3529.48C3529.48 342.652 3526.51 372.109 3521.13 394.266C3515.55 417.202 3508.45 428.83 3500.04 428.83Z" fill="#9BB6FF"/>
<path d="M3586.1 312.453H3584.28C3584.28 248.481 3581.35 188.337 3576.03 143.103C3568.42 78.409 3559.57 73.3778 3557.02 73.3778C3554.48 73.3778 3545.63 78.409 3538.02 143.103C3532.69 188.337 3529.77 248.481 3529.77 312.453H3527.95C3527.95 248.462 3530.87 188.3 3536.2 143.047C3541.7 96.2032 3548.7 72.4529 3557.02 72.4529C3565.34 72.4529 3572.32 96.2032 3577.85 143.047C3583.17 188.3 3586.1 248.462 3586.1 312.453Z" fill="#9BB6FF"/>
<path d="M3613.91 428.83C3605.52 428.83 3598.46 417.202 3592.9 394.266C3587.52 372.109 3584.56 342.652 3584.56 311.321H3586.4C3586.4 342.643 3589.35 372.091 3594.73 394.239C3602.4 425.914 3611.36 428.378 3613.93 428.378C3616.5 428.378 3625.44 425.914 3633.13 394.239C3638.5 372.091 3641.46 342.643 3641.46 311.321H3643.29C3643.29 342.652 3640.34 372.109 3634.96 394.266C3629.4 417.202 3622.33 428.83 3613.93 428.83H3613.91Z" fill="#9BB6FF"/>
<path d="M58.7505 312.226H56.9151C56.9151 280.904 53.9602 251.457 48.5825 229.309C40.8923 197.633 31.9356 195.17 29.3844 195.17C26.8332 195.17 17.8582 197.633 10.168 229.309C4.79034 251.457 1.83538 280.904 1.83538 312.226H0C0 280.895 2.95496 251.438 8.33262 229.281C13.8938 206.346 20.9784 194.717 29.3844 194.717C37.7905 194.717 44.8567 206.346 50.4179 229.281C55.7955 251.438 58.7505 280.895 58.7505 312.226Z" fill="#9BB6FF"/>
<path d="M86.285 428.83C77.8973 428.83 70.8128 417.202 65.2516 394.266C59.8739 372.109 56.9189 342.652 56.9189 311.321H58.7543C58.7543 342.643 61.7093 372.091 67.0869 394.239C74.7772 425.914 83.7338 428.378 86.3034 428.378C88.8729 428.378 97.8295 425.914 105.52 394.239C110.897 372.091 113.852 342.643 113.852 311.321H115.688C115.688 342.652 112.733 372.109 107.355 394.266C101.794 417.202 94.7094 428.83 86.3217 428.83H86.285Z" fill="#9BB6FF"/>
<path d="M172.541 312H170.69C170.69 236.561 167.709 165.637 162.303 112.295C154.582 36.0049 145.584 30.0719 143.01 30.0719C140.436 30.0719 131.438 36.0049 123.699 112.295C118.292 165.637 115.311 236.561 115.311 312H113.46C113.46 236.539 116.441 165.594 121.847 112.229C127.439 56.9887 134.567 28.9813 143.01 28.9813C151.453 28.9813 158.563 56.9887 164.173 112.229C169.579 165.594 172.56 236.539 172.56 312H172.541Z" fill="#9BB6FF"/>
<path d="M199.734 459.169C191.428 459.169 184.433 444.561 178.913 415.747C173.594 387.912 170.661 350.907 170.661 311.547H172.483C172.483 350.896 175.416 387.889 180.735 415.713C188.331 455.506 197.202 458.6 199.734 458.6C202.267 458.6 211.12 455.506 218.734 415.713C224.053 387.889 226.986 350.896 226.986 311.547H228.808C228.808 350.907 225.875 387.912 220.556 415.747C215.054 444.561 208.041 459.169 199.734 459.169Z" fill="#9BB6FF"/>
<path d="M285.974 312.453H284.131C284.131 272.259 281.144 234.471 275.743 206.05C268.001 165.403 258.986 162.242 256.424 162.242C253.862 162.242 244.829 165.403 237.105 206.05C231.704 234.471 228.717 272.259 228.717 312.453H226.874C226.874 272.247 229.86 234.448 235.262 206.015C240.866 176.583 247.981 161.661 256.424 161.661C264.867 161.661 271.982 176.583 277.586 206.015C282.988 234.448 285.974 272.247 285.974 312.453Z" fill="#9BB6FF"/>
<path d="M313.731 428.83C305.325 428.83 298.24 417.202 292.661 394.266C287.283 372.109 284.31 342.652 284.31 311.321H286.145C286.145 342.643 289.118 372.091 294.496 394.239C302.205 425.914 311.18 428.378 313.731 428.378C316.282 428.378 325.275 425.914 332.965 394.239C338.343 372.091 341.316 342.643 341.316 311.321H343.152C343.152 342.652 340.179 372.109 334.801 394.266C329.221 417.202 322.137 428.83 313.731 428.83Z" fill="#9BB6FF"/>
<path d="M400.012 312.227H398.177C398.177 280.904 395.222 251.457 389.863 229.309C382.191 197.633 373.252 195.17 370.683 195.17C368.113 195.17 359.175 197.633 351.503 229.309C346.144 251.457 343.189 280.904 343.189 312.227H341.354C341.354 280.895 344.308 251.439 349.686 229.282C355.247 206.346 362.314 194.717 370.701 194.717C379.089 194.717 386.155 206.346 391.716 229.282C397.076 251.439 400.049 280.895 400.049 312.227H400.012Z" fill="#9BB6FF"/>
<path d="M427.57 468.226C419.256 468.226 412.251 452.722 406.738 422.14C401.426 392.598 398.479 353.322 398.479 311.547H400.298C400.298 353.31 403.227 392.574 408.54 422.104C416.144 464.338 425.005 467.623 427.552 467.623C430.099 467.623 438.959 464.338 446.564 422.104C451.877 392.574 454.806 353.31 454.806 311.547H456.625C456.625 353.322 453.696 392.598 448.365 422.14C442.853 452.722 435.848 468.226 427.534 468.226H427.57Z" fill="#9BB6FF"/>
<path d="M513.775 312.453H511.93C511.93 252.826 508.961 196.768 503.556 154.606C495.827 94.3061 486.807 89.6167 484.225 89.6167C481.643 89.6167 472.641 94.3061 464.912 154.606C459.508 196.768 456.538 252.826 456.538 312.453H454.693C454.693 252.809 457.663 196.733 463.086 154.554C468.675 110.892 475.814 88.7546 484.243 88.7546C492.673 88.7546 499.812 110.892 505.401 154.554C510.805 196.733 513.793 252.809 513.793 312.453H513.775Z" fill="#9BB6FF"/>
<path d="M541.361 428.83C532.955 428.83 525.87 417.202 520.309 394.266C514.931 372.109 511.958 342.652 511.958 311.321H513.793C513.793 342.643 516.748 372.091 522.126 394.239C529.816 425.914 538.791 428.378 541.342 428.378C543.894 428.378 552.869 425.914 560.577 394.239C565.955 372.091 568.91 342.643 568.91 311.321H570.745C570.745 342.652 567.79 372.109 562.394 394.266C556.815 417.202 549.73 428.83 541.342 428.83H541.361Z" fill="#9BB6FF"/>
<path d="M627.547 312.227H625.711C625.711 280.904 622.756 251.457 617.397 229.309C609.725 197.633 600.787 195.17 598.236 195.17C595.685 195.17 586.746 197.633 579.074 229.309C573.715 251.457 570.76 280.904 570.76 312.227H568.925C568.925 280.895 571.88 251.439 577.239 229.282C582.782 206.346 589.848 194.717 598.236 194.717C606.623 194.717 613.671 206.346 619.232 229.282C624.592 251.439 627.547 280.895 627.547 312.227Z" fill="#9BB6FF"/>
<path d="M654.865 459.17C646.428 459.17 639.304 444.561 633.697 415.748C628.294 387.913 625.315 350.907 625.315 311.547H627.166C627.166 350.896 630.145 387.89 635.548 415.714C643.282 455.506 652.293 458.601 654.865 458.601C657.437 458.601 666.449 455.506 674.183 415.714C679.586 387.89 682.565 350.896 682.565 311.547H684.415C684.415 350.907 681.436 387.913 676.033 415.748C670.445 444.561 663.321 459.17 654.865 459.17Z" fill="#9BB6FF"/>
<path d="M741.62 312H739.778C739.778 228.836 736.794 150.65 731.396 91.8446C723.658 7.74289 714.65 1.20231 712.071 1.20231C709.491 1.20231 700.483 7.74289 692.745 91.8446C687.329 150.65 684.363 228.836 684.363 312H682.521C682.521 228.812 685.505 150.602 690.903 91.7725C696.503 30.8754 703.633 0 712.071 0C720.508 0 727.638 30.8754 733.238 91.7725C738.654 150.602 741.62 228.812 741.62 312Z" fill="#9BB6FF"/>
<path d="M768.993 428.83C760.569 428.83 753.484 417.202 747.905 394.266C742.509 372.109 739.554 342.652 739.554 311.321H741.389C741.389 342.643 744.362 372.091 749.74 394.239C757.449 425.914 766.424 428.378 768.993 428.378C771.563 428.378 780.538 425.914 788.246 394.239C793.642 372.091 796.597 342.643 796.597 311.321H798.433C798.433 342.652 795.459 372.109 790.082 394.266C784.502 417.202 777.399 428.83 768.993 428.83Z" fill="#9BB6FF"/>
<path d="M855.308 312.226H853.473C853.473 280.904 850.518 251.457 845.14 229.309C837.468 197.633 828.512 195.17 825.942 195.17C823.373 195.17 814.434 197.633 806.744 229.309C801.366 251.457 798.412 280.904 798.412 312.226H796.576C796.576 280.895 799.531 251.438 804.909 229.281C810.47 206.346 817.536 194.717 825.924 194.717C834.311 194.717 841.378 206.346 846.957 229.281C852.335 251.438 855.29 280.895 855.29 312.226H855.308Z" fill="#9BB6FF"/>
<path d="M882.848 428.83C874.461 428.83 867.376 417.202 861.815 394.266C856.437 372.109 853.482 342.652 853.482 311.321H855.318C855.318 342.643 858.273 372.091 863.65 394.239C871.341 425.914 880.279 428.378 882.848 428.378C885.418 428.378 894.356 425.914 902.046 394.239C907.424 372.091 910.379 342.643 910.379 311.321H912.214C912.214 342.652 909.259 372.109 903.882 394.266C898.321 417.202 891.254 428.83 882.867 428.83H882.848Z" fill="#9BB6FF"/>
<path d="M969.458 312.453H967.613C967.613 259.947 964.641 210.584 959.233 173.458C951.499 120.36 942.492 116.231 939.908 116.231C937.324 116.231 928.317 120.36 920.584 173.458C915.176 210.584 912.204 259.947 912.204 312.453H910.358C910.358 259.932 913.33 210.554 918.738 173.412C924.331 134.965 931.455 115.472 939.89 115.472C948.325 115.472 955.449 134.965 961.042 173.412C966.45 210.554 969.421 259.932 969.421 312.453H969.458Z" fill="#9BB6FF"/>
<path d="M996.615 459.17C988.316 459.17 981.306 444.516 975.804 415.614C970.483 387.694 967.56 350.575 967.56 311.094H969.376C969.376 350.564 972.299 387.671 977.62 415.58C985.229 455.495 994.091 458.599 996.633 458.599C999.175 458.599 1008.04 455.495 1015.65 415.58C1020.97 387.671 1023.89 350.564 1023.89 311.094H1025.71C1025.71 350.575 1022.78 387.694 1017.46 415.614C1011.96 444.516 1004.95 459.17 996.651 459.17H996.615Z" fill="#9BB6FF"/>
<path d="M1082.74 312.227H1080.91C1080.91 280.904 1077.95 251.457 1072.59 229.309C1064.94 197.633 1056 195.17 1053.45 195.17C1050.9 195.17 1041.98 197.633 1034.31 229.309C1028.95 251.457 1025.99 280.904 1025.99 312.227H1024.16C1024.16 280.895 1027.11 251.439 1032.47 229.282C1038.01 206.346 1045.08 194.717 1053.45 194.717C1061.82 194.717 1068.87 206.346 1074.43 229.282C1079.79 251.439 1082.74 280.895 1082.74 312.227Z" fill="#9BB6FF"/>
<path d="M1110.21 428.83C1101.84 428.83 1094.8 417.202 1089.24 394.266C1083.88 372.109 1080.92 342.652 1080.92 311.321H1082.76C1082.76 342.643 1085.71 372.091 1091.07 394.239C1098.72 425.914 1107.66 428.378 1110.21 428.378C1112.76 428.378 1121.68 425.914 1129.36 394.239C1134.72 372.091 1137.67 342.643 1137.67 311.321H1139.51C1139.51 342.652 1136.55 372.109 1131.19 394.266C1125.65 417.202 1118.58 428.83 1110.21 428.83Z" fill="#9BB6FF"/>
<path d="M1196.51 312.227H1194.68C1194.68 280.904 1191.7 251.457 1186.33 229.309C1178.64 197.633 1169.66 195.17 1167.09 195.17C1164.52 195.17 1155.55 197.633 1147.86 229.309C1142.48 251.457 1139.51 280.904 1139.51 312.227H1137.67C1137.67 280.895 1140.64 251.439 1146.02 229.282C1151.6 206.346 1158.69 194.717 1167.09 194.717C1175.5 194.717 1182.58 206.346 1188.16 229.282C1193.54 251.439 1196.51 280.895 1196.51 312.227Z" fill="#9BB6FF"/>
<path d="M1223.97 474.113C1215.52 474.113 1208.41 458.026 1202.8 426.296C1197.4 395.643 1194.42 354.892 1194.42 311.547H1196.26C1196.26 354.879 1199.25 395.618 1204.65 426.258C1212.37 470.079 1221.39 473.487 1223.97 473.487C1226.55 473.487 1235.56 470.079 1243.29 426.258C1248.69 395.618 1251.67 354.879 1251.67 311.547H1253.52C1253.52 354.892 1250.53 395.643 1245.13 426.296C1239.53 458.026 1232.41 474.113 1223.97 474.113Z" fill="#9BB6FF"/>
<path d="M1310.68 312.453H1308.83C1308.83 266.224 1305.85 222.762 1300.46 190.073C1292.73 143.323 1283.73 139.687 1281.15 139.687C1278.56 139.687 1269.56 143.323 1261.83 190.073C1256.44 222.762 1253.46 266.224 1253.46 312.453H1251.61C1251.61 266.21 1254.59 222.735 1260 190.033C1265.6 156.182 1272.72 139.019 1281.16 139.019C1289.61 139.019 1296.72 156.182 1302.32 190.033C1307.72 222.735 1310.71 266.21 1310.71 312.453H1310.68Z" fill="#9BB6FF"/>
<path d="M1337.84 428.83C1329.45 428.83 1322.39 417.202 1316.82 394.266C1311.47 372.109 1308.49 342.652 1308.49 311.321H1310.33C1310.33 342.643 1313.28 372.091 1318.64 394.239C1326.31 425.914 1335.25 428.378 1337.82 428.378C1340.39 428.378 1349.33 425.914 1357 394.239C1362.36 372.091 1365.32 342.643 1365.32 311.321H1367.15C1367.15 342.652 1364.2 372.109 1358.82 394.266C1353.26 417.202 1346.19 428.83 1337.8 428.83H1337.84Z" fill="#9BB6FF"/>
<path d="M1424.12 312.227H1422.29C1422.29 280.904 1419.33 251.457 1413.96 229.309C1406.27 197.634 1397.29 195.17 1394.74 195.17C1392.19 195.17 1383.21 197.634 1375.52 229.309C1370.14 251.457 1367.19 280.904 1367.19 312.227H1365.35C1365.35 280.895 1368.31 251.439 1373.71 229.282C1379.27 206.346 1386.35 194.717 1394.76 194.717C1403.16 194.717 1410.25 206.346 1415.81 229.282C1421.19 251.439 1424.16 280.895 1424.16 312.227H1424.12Z" fill="#9BB6FF"/>
<path d="M1451.8 480C1443.34 480 1436.22 463.33 1430.62 430.451C1425.22 398.688 1422.23 356.461 1422.23 311.547H1424.07C1424.07 356.448 1427.04 398.662 1432.45 430.412C1440.19 475.82 1449.21 479.351 1451.78 479.351C1454.34 479.351 1463.37 475.82 1471.1 430.412C1476.51 398.662 1479.48 356.448 1479.48 311.547H1481.33C1481.33 356.461 1478.35 398.688 1472.93 430.451C1467.34 463.33 1460.21 480 1451.76 480H1451.8Z" fill="#9BB6FF"/>
<path d="M1537.58 312H1535.75C1535.75 273.737 1532.82 237.765 1527.51 210.709C1519.9 172.015 1511.03 169.006 1508.5 169.006C1505.97 169.006 1497.11 172.015 1489.5 210.709C1484.18 237.765 1481.25 273.737 1481.25 312H1479.43C1479.43 273.726 1482.36 237.743 1487.68 210.676C1493.17 182.658 1500.18 168.453 1508.5 168.453C1516.82 168.453 1523.81 182.658 1529.33 210.676C1534.64 237.743 1537.58 273.726 1537.58 312Z" fill="#9BB6FF"/>
<path d="M1565.39 428.83C1557.02 428.83 1549.95 417.202 1544.39 394.266C1539.03 372.109 1536.08 342.652 1536.08 311.321H1537.91C1537.91 342.643 1540.87 372.091 1546.23 394.239C1553.9 425.914 1562.84 428.378 1565.39 428.378C1567.94 428.378 1576.88 425.914 1584.55 394.239C1589.91 372.091 1592.86 342.643 1592.86 311.321H1594.7C1594.7 342.652 1591.74 372.109 1586.38 394.266C1580.82 417.202 1573.77 428.83 1565.39 428.83Z" fill="#9BB6FF"/>
<path d="M1651.72 312.226H1649.89C1649.89 280.904 1646.91 251.457 1641.54 229.309C1633.83 197.633 1624.85 195.17 1622.28 195.17C1619.71 195.17 1610.74 197.633 1603.03 229.309C1597.63 251.457 1594.68 280.904 1594.68 312.226H1592.84C1592.84 280.895 1595.82 251.438 1601.19 229.282C1606.77 206.346 1613.88 194.717 1622.28 194.717C1630.69 194.717 1637.79 206.346 1643.37 229.282C1648.77 251.438 1651.72 280.895 1651.72 312.226Z" fill="#9BB6FF"/>
<path d="M1679.34 428.83C1670.93 428.83 1663.83 417.202 1658.25 394.266C1652.86 372.109 1649.9 342.652 1649.9 311.321H1651.74C1651.74 342.643 1654.71 372.091 1660.09 394.239C1667.8 425.914 1676.77 428.378 1679.34 428.378C1681.91 428.378 1690.89 425.914 1698.59 394.239C1703.99 372.091 1706.94 342.643 1706.94 311.321H1708.78C1708.78 342.652 1705.81 372.109 1700.43 394.266C1694.85 417.202 1687.75 428.83 1679.34 428.83Z" fill="#9BB6FF"/>
<path d="M1765.36 312.453H1763.54C1763.54 248.481 1760.61 188.337 1755.29 143.103C1747.68 78.409 1738.83 73.3778 1736.28 73.3778C1733.74 73.3778 1724.89 78.409 1717.28 143.103C1711.95 188.337 1709.03 248.481 1709.03 312.453H1707.21C1707.21 248.462 1710.14 188.3 1715.46 143.047C1720.97 96.2032 1727.96 72.4529 1736.28 72.4529C1744.61 72.4529 1751.58 96.2032 1757.11 143.047C1762.43 188.3 1765.36 248.462 1765.36 312.453Z" fill="#9BB6FF"/>
<path d="M1793.17 428.83C1784.78 428.83 1777.72 417.202 1772.16 394.266C1766.78 372.109 1763.82 342.652 1763.82 311.321H1765.66C1765.66 342.643 1768.61 372.091 1773.99 394.239C1781.66 425.914 1790.62 428.378 1793.19 428.378C1795.76 428.378 1804.7 425.914 1812.39 394.239C1817.77 372.091 1820.72 342.643 1820.72 311.321H1822.56C1822.56 342.652 1819.6 372.109 1814.22 394.266C1808.66 417.202 1801.6 428.83 1793.19 428.83H1793.17Z" fill="#9BB6FF"/>
<path d="M3700.16 312.226H3698.32C3698.32 280.904 3695.37 251.457 3689.99 229.309C3682.3 197.633 3673.34 195.17 3670.79 195.17C3668.24 195.17 3659.27 197.633 3651.58 229.309C3646.2 251.457 3643.24 280.904 3643.24 312.226H3641.41C3641.41 280.895 3644.36 251.438 3649.74 229.281C3655.3 206.346 3662.39 194.717 3670.79 194.717C3679.2 194.717 3686.26 206.346 3691.83 229.281C3697.2 251.438 3700.16 280.895 3700.16 312.226Z" fill="#9BB6FF"/>
<path d="M3727.69 428.83C3719.3 428.83 3712.22 417.202 3706.66 394.266C3701.28 372.109 3698.33 342.652 3698.33 311.321H3700.16C3700.16 342.643 3703.12 372.091 3708.49 394.239C3716.18 425.914 3725.14 428.378 3727.71 428.378C3730.28 428.378 3739.24 425.914 3746.93 394.239C3752.3 372.091 3755.26 342.643 3755.26 311.321H3757.09C3757.09 342.652 3754.14 372.109 3748.76 394.266C3743.2 417.202 3736.12 428.83 3727.73 428.83H3727.69Z" fill="#9BB6FF"/>
<path d="M3813.95 312H3812.09C3812.09 236.561 3809.11 165.637 3803.71 112.295C3795.99 36.0049 3786.99 30.0719 3784.41 30.0719C3781.84 30.0719 3772.84 36.0049 3765.1 112.295C3759.7 165.637 3756.72 236.561 3756.72 312H3754.86C3754.86 236.539 3757.85 165.594 3763.25 112.229C3768.84 56.9887 3775.97 28.9813 3784.41 28.9813C3792.86 28.9813 3799.97 56.9887 3805.58 112.229C3810.98 165.594 3813.96 236.539 3813.96 312H3813.95Z" fill="#9BB6FF"/>
<path d="M3841.14 459.169C3832.83 459.169 3825.84 444.561 3820.32 415.747C3815 387.912 3812.07 350.907 3812.07 311.547H3813.89C3813.89 350.896 3816.82 387.889 3822.14 415.713C3829.74 455.506 3838.61 458.6 3841.14 458.6C3843.67 458.6 3852.52 455.506 3860.14 415.713C3865.46 387.889 3868.39 350.896 3868.39 311.547H3870.21C3870.21 350.907 3867.28 387.912 3861.96 415.747C3856.46 444.561 3849.45 459.169 3841.14 459.169Z" fill="#9BB6FF"/>
<path d="M3927.42 312.453H3925.58C3925.58 272.259 3922.59 234.471 3917.19 206.05C3909.45 165.403 3900.43 162.242 3897.87 162.242C3895.31 162.242 3886.27 165.403 3878.55 206.05C3873.15 234.471 3870.16 272.259 3870.16 312.453H3868.32C3868.32 272.247 3871.31 234.448 3876.71 206.015C3882.31 176.583 3889.43 161.661 3897.87 161.661C3906.31 161.661 3913.43 176.583 3919.03 206.015C3924.43 234.448 3927.42 272.247 3927.42 312.453Z" fill="#9BB6FF"/>
<path d="M3955.18 428.83C3946.77 428.83 3939.69 417.202 3934.11 394.266C3928.73 372.109 3925.76 342.652 3925.76 311.321H3927.59C3927.59 342.643 3930.57 372.091 3935.94 394.239C3943.65 425.914 3952.63 428.378 3955.18 428.378C3957.73 428.378 3966.72 425.914 3974.41 394.239C3979.79 372.091 3982.76 342.643 3982.76 311.321H3984.6C3984.6 342.652 3981.63 372.109 3976.25 394.266C3970.67 417.202 3963.58 428.83 3955.18 428.83Z" fill="#9BB6FF"/>
<path d="M4041.42 312.227H4039.58C4039.58 280.904 4036.63 251.457 4031.27 229.309C4023.6 197.633 4014.66 195.17 4012.09 195.17C4009.52 195.17 4000.58 197.633 3992.91 229.309C3987.55 251.457 3984.6 280.904 3984.6 312.227H3982.76C3982.76 280.895 3985.72 251.439 3991.09 229.282C3996.65 206.346 4003.72 194.717 4012.11 194.717C4020.5 194.717 4027.56 206.346 4033.12 229.282C4038.48 251.439 4041.46 280.895 4041.46 312.227H4041.42Z" fill="#9BB6FF"/>
<path d="M4068.98 468.226C4060.66 468.226 4053.66 452.722 4048.15 422.14C4042.83 392.598 4039.89 353.322 4039.89 311.547H4041.71C4041.71 353.31 4044.63 392.574 4049.95 422.104C4057.55 464.338 4066.41 467.623 4068.96 467.623C4071.51 467.623 4080.37 464.338 4087.97 422.104C4093.28 392.574 4096.21 353.31 4096.21 311.547H4098.03C4098.03 353.322 4095.1 392.598 4089.77 422.14C4084.26 452.722 4077.26 468.226 4068.94 468.226H4068.98Z" fill="#9BB6FF"/>
<path d="M4155.18 312.453H4153.33C4153.33 252.826 4150.36 196.768 4144.96 154.606C4137.23 94.3061 4128.21 89.6167 4125.63 89.6167C4123.04 89.6167 4114.04 94.3061 4106.31 154.606C4100.91 196.768 4097.94 252.826 4097.94 312.453H4096.1C4096.1 252.809 4099.07 196.733 4104.49 154.554C4110.08 110.892 4117.22 88.7546 4125.65 88.7546C4134.08 88.7546 4141.21 110.892 4146.8 154.554C4152.21 196.733 4155.2 252.809 4155.2 312.453H4155.18Z" fill="#9BB6FF"/>
<path d="M4182.76 428.83C4174.36 428.83 4167.27 417.202 4161.71 394.266C4156.33 372.109 4153.36 342.652 4153.36 311.321H4155.19C4155.19 342.643 4158.15 372.091 4163.53 394.239C4171.22 425.914 4180.19 428.378 4182.74 428.378C4185.29 428.378 4194.27 425.914 4201.98 394.239C4207.36 372.091 4210.31 342.643 4210.31 311.321H4212.15C4212.15 342.652 4209.19 372.109 4203.8 394.266C4198.22 417.202 4191.13 428.83 4182.74 428.83H4182.76Z" fill="#9BB6FF"/>
<path d="M4268.98 312.227H4267.14C4267.14 280.904 4264.19 251.457 4258.83 229.309C4251.15 197.633 4242.22 195.17 4239.67 195.17C4237.11 195.17 4228.18 197.633 4220.5 229.309C4215.14 251.457 4212.19 280.904 4212.19 312.227H4210.35C4210.35 280.895 4213.31 251.439 4218.67 229.282C4224.21 206.346 4231.28 194.717 4239.67 194.717C4248.05 194.717 4255.1 206.346 4260.66 229.282C4266.02 251.439 4268.98 280.895 4268.98 312.227Z" fill="#9BB6FF"/>
<path d="M4296.3 459.17C4287.86 459.17 4280.73 444.561 4275.13 415.748C4269.72 387.913 4266.75 350.907 4266.75 311.547H4268.6C4268.6 350.896 4271.57 387.89 4276.98 415.714C4284.71 455.506 4293.72 458.601 4296.3 458.601C4298.87 458.601 4307.88 455.506 4315.61 415.714C4321.02 387.89 4323.99 350.896 4323.99 311.547H4325.85C4325.85 350.907 4322.87 387.913 4317.46 415.748C4311.88 444.561 4304.75 459.17 4296.3 459.17Z" fill="#9BB6FF"/>
<path d="M4383.01 312H4381.16C4381.16 228.836 4378.18 150.65 4372.78 91.8446C4365.04 7.74289 4356.04 1.20231 4353.46 1.20231C4350.88 1.20231 4341.87 7.74289 4334.13 91.8446C4328.71 150.65 4325.75 228.836 4325.75 312H4323.91C4323.91 228.812 4326.89 150.602 4332.29 91.7725C4337.89 30.8754 4345.02 0 4353.46 0C4361.89 0 4369.02 30.8754 4374.62 91.7725C4380.04 150.602 4383.01 228.812 4383.01 312Z" fill="#9BB6FF"/>
<path d="M4410.38 428.83C4401.95 428.83 4394.87 417.202 4389.29 394.266C4383.89 372.109 4380.94 342.652 4380.94 311.321H4382.77C4382.77 342.643 4385.75 372.091 4391.13 394.239C4398.83 425.914 4407.81 428.378 4410.38 428.378C4412.95 428.378 4421.92 425.914 4429.63 394.239C4435.03 372.091 4437.98 342.643 4437.98 311.321H4439.82C4439.82 342.652 4436.85 372.109 4431.47 394.266C4425.89 417.202 4418.78 428.83 4410.38 428.83Z" fill="#9BB6FF"/>
<path d="M4496.73 312.226H4494.9C4494.9 280.904 4491.94 251.457 4486.56 229.309C4478.89 197.633 4469.94 195.17 4467.37 195.17C4464.8 195.17 4455.86 197.633 4448.17 229.309C4442.79 251.457 4439.84 280.904 4439.84 312.226H4438C4438 280.895 4440.95 251.438 4446.33 229.281C4451.89 206.346 4458.96 194.717 4467.35 194.717C4475.74 194.717 4482.8 206.346 4488.38 229.281C4493.76 251.438 4496.71 280.895 4496.71 312.226H4496.73Z" fill="#9BB6FF"/>
<path d="M4524.25 428.83C4515.86 428.83 4508.78 417.202 4503.22 394.266C4497.84 372.109 4494.88 342.652 4494.88 311.321H4496.72C4496.72 342.643 4499.67 372.091 4505.05 394.239C4512.74 425.914 4521.68 428.378 4524.25 428.378C4526.82 428.378 4535.76 425.914 4543.45 394.239C4548.82 372.091 4551.78 342.643 4551.78 311.321H4553.61C4553.61 342.652 4550.66 372.109 4545.28 394.266C4539.72 417.202 4532.65 428.83 4524.27 428.83H4524.25Z" fill="#9BB6FF"/>
<path d="M4610.84 312.453H4609C4609 259.947 4606.02 210.584 4600.62 173.458C4592.88 120.36 4583.88 116.231 4581.29 116.231C4578.71 116.231 4569.7 120.36 4561.97 173.458C4556.56 210.584 4553.59 259.947 4553.59 312.453H4551.74C4551.74 259.932 4554.71 210.554 4560.12 173.412C4565.71 134.965 4572.84 115.472 4581.27 115.472C4589.71 115.472 4596.83 134.965 4602.43 173.412C4607.83 210.554 4610.81 259.932 4610.81 312.453H4610.84Z" fill="#9BB6FF"/>
<path d="M4638 459.17C4629.7 459.17 4622.69 444.516 4617.19 415.614C4611.87 387.694 4608.94 350.575 4608.94 311.094H4610.76C4610.76 350.564 4613.68 387.671 4619 415.58C4626.61 455.495 4635.47 458.599 4638.02 458.599C4640.56 458.599 4649.42 455.495 4657.03 415.58C4662.35 387.671 4665.27 350.564 4665.27 311.094H4667.09C4667.09 350.575 4664.17 387.694 4658.85 415.614C4653.34 444.516 4646.33 459.17 4638.03 459.17H4638Z" fill="#9BB6FF"/>
<path d="M4724.17 312.227H4722.33C4722.33 280.904 4719.38 251.457 4714.02 229.309C4706.36 197.633 4697.43 195.17 4694.87 195.17C4692.32 195.17 4683.4 197.633 4675.73 229.309C4670.37 251.457 4667.42 280.904 4667.42 312.227H4665.58C4665.58 280.895 4668.54 251.439 4673.9 229.282C4679.44 206.346 4686.51 194.717 4694.87 194.717C4703.24 194.717 4710.29 206.346 4715.85 229.282C4721.21 251.439 4724.17 280.895 4724.17 312.227Z" fill="#9BB6FF"/>
<path d="M4751.64 428.83C4743.27 428.83 4736.22 417.202 4730.66 394.266C4725.3 372.109 4722.35 342.652 4722.35 311.321H4724.18C4724.18 342.643 4727.14 372.091 4732.5 394.239C4740.15 425.914 4749.09 428.378 4751.64 428.378C4754.19 428.378 4763.11 425.914 4770.78 394.239C4776.14 372.091 4779.1 342.643 4779.1 311.321H4780.93C4780.93 342.652 4777.98 372.109 4772.62 394.266C4767.07 417.202 4760.01 428.83 4751.64 428.83Z" fill="#9BB6FF"/>
<path d="M4837.91 312.227H4836.07C4836.07 280.904 4833.1 251.457 4827.72 229.309C4820.03 197.633 4811.06 195.17 4808.49 195.17C4805.92 195.17 4796.94 197.633 4789.25 229.309C4783.88 251.457 4780.9 280.904 4780.9 312.227H4779.07C4779.07 280.895 4782.04 251.439 4787.42 229.282C4793 206.346 4800.08 194.717 4808.49 194.717C4816.89 194.717 4823.98 206.346 4829.56 229.282C4834.94 251.439 4837.91 280.895 4837.91 312.227Z" fill="#9BB6FF"/>
<path d="M4865.36 474.113C4856.92 474.113 4849.8 458.026 4844.2 426.296C4838.8 395.643 4835.81 354.892 4835.81 311.547H4837.65C4837.65 354.879 4840.64 395.618 4846.04 426.258C4853.77 470.079 4862.78 473.487 4865.36 473.487C4867.94 473.487 4876.96 470.079 4884.68 426.258C4890.08 395.618 4893.07 354.879 4893.07 311.547H4894.91C4894.91 354.892 4891.92 395.643 4886.52 426.296C4880.92 458.026 4873.8 474.113 4865.36 474.113Z" fill="#9BB6FF"/>
<path d="M4952.08 312.453H4950.23C4950.23 266.224 4947.25 222.762 4941.86 190.073C4934.13 143.323 4925.13 139.687 4922.54 139.687C4919.96 139.687 4910.96 143.323 4903.23 190.073C4897.84 222.762 4894.86 266.224 4894.86 312.453H4893.01C4893.01 266.21 4895.99 222.735 4901.4 190.033C4907 156.182 4914.12 139.019 4922.56 139.019C4931.01 139.019 4938.12 156.182 4943.72 190.033C4949.12 222.735 4952.11 266.21 4952.11 312.453H4952.08Z" fill="#9BB6FF"/>
<path d="M4979.24 428.83C4970.85 428.83 4963.78 417.202 4958.22 394.266C4952.86 372.109 4949.89 342.652 4949.89 311.321H4951.73C4951.73 342.643 4954.68 372.091 4960.04 394.239C4967.71 425.914 4976.65 428.378 4979.22 428.378C4981.79 428.378 4990.73 425.914 4998.4 394.239C5003.76 372.091 5006.71 342.643 5006.71 311.321H5008.55C5008.55 342.652 5005.59 372.109 5000.22 394.266C4994.65 417.202 4987.59 428.83 4979.2 428.83H4979.24Z" fill="#9BB6FF"/>
<path d="M5065.56 312.227H5063.72C5063.72 280.904 5060.77 251.457 5055.39 229.309C5047.7 197.634 5038.73 195.17 5036.18 195.17C5033.62 195.17 5024.65 197.634 5016.96 229.309C5011.58 251.457 5008.63 280.904 5008.63 312.227H5006.79C5006.79 280.895 5009.75 251.439 5015.14 229.282C5020.7 206.346 5027.79 194.717 5036.19 194.717C5044.6 194.717 5051.68 206.346 5057.25 229.282C5062.62 251.439 5065.6 280.895 5065.6 312.227H5065.56Z" fill="#9BB6FF"/>
<path d="M5093.2 480C5084.74 480 5077.62 463.33 5072.03 430.451C5066.62 398.688 5063.63 356.461 5063.63 311.547H5065.48C5065.48 356.448 5068.45 398.662 5073.86 430.412C5081.59 475.82 5090.61 479.351 5093.18 479.351C5095.75 479.351 5104.77 475.82 5112.5 430.412C5117.91 398.662 5120.88 356.448 5120.88 311.547H5122.73C5122.73 356.461 5119.76 398.688 5114.33 430.451C5108.74 463.33 5101.61 480 5093.16 480H5093.2Z" fill="#9BB6FF"/>
<path d="M5178.98 312H5177.16C5177.16 273.737 5174.23 237.765 5168.91 210.709C5161.3 172.015 5152.44 169.006 5149.91 169.006C5147.38 169.006 5138.51 172.015 5130.9 210.709C5125.59 237.765 5122.66 273.737 5122.66 312H5120.83C5120.83 273.726 5123.77 237.743 5129.08 210.676C5134.58 182.658 5141.59 168.453 5149.91 168.453C5158.23 168.453 5165.22 182.658 5170.73 210.676C5176.05 237.743 5178.98 273.726 5178.98 312Z" fill="#9BB6FF"/>
<path d="M5206.79 428.83C5198.42 428.83 5191.36 417.202 5185.8 394.266C5180.44 372.109 5177.48 342.652 5177.48 311.321H5179.32C5179.32 342.643 5182.27 372.091 5187.63 394.239C5195.3 425.914 5204.24 428.378 5206.79 428.378C5209.34 428.378 5218.28 425.914 5225.95 394.239C5231.31 372.091 5234.27 342.643 5234.27 311.321H5236.1C5236.1 342.652 5233.15 372.109 5227.79 394.266C5222.23 417.202 5215.18 428.83 5206.79 428.83Z" fill="#9BB6FF"/>
<path d="M5293.13 312.226H5291.3C5291.3 280.904 5288.32 251.457 5282.94 229.309C5275.24 197.633 5266.26 195.17 5263.69 195.17C5261.12 195.17 5252.15 197.633 5244.44 229.309C5239.04 251.457 5236.09 280.904 5236.09 312.226H5234.25C5234.25 280.895 5237.23 251.438 5242.6 229.282C5248.18 206.346 5255.29 194.717 5263.69 194.717C5272.1 194.717 5279.2 206.346 5284.78 229.282C5290.18 251.438 5293.13 280.895 5293.13 312.226Z" fill="#9BB6FF"/>
<path d="M5320.75 428.83C5312.34 428.83 5305.24 417.202 5299.66 394.266C5294.27 372.109 5291.31 342.652 5291.31 311.321H5293.15C5293.15 342.643 5296.12 372.091 5301.5 394.239C5309.21 425.914 5318.18 428.378 5320.75 428.378C5323.32 428.378 5332.29 425.914 5340 394.239C5345.4 372.091 5348.35 342.643 5348.35 311.321H5350.19C5350.19 342.652 5347.22 372.109 5341.84 394.266C5336.26 417.202 5329.16 428.83 5320.75 428.83Z" fill="#9BB6FF"/>
<path d="M5406.8 312.453H5404.98C5404.98 248.481 5402.06 188.337 5396.73 143.103C5389.12 78.409 5380.27 73.3778 5377.73 73.3778C5375.18 73.3778 5366.33 78.409 5358.72 143.103C5353.4 188.337 5350.47 248.481 5350.47 312.453H5348.65C5348.65 248.462 5351.58 188.3 5356.9 143.047C5362.41 96.2032 5369.4 72.4529 5377.73 72.4529C5386.05 72.4529 5393.03 96.2032 5398.55 143.047C5403.87 188.3 5406.8 248.462 5406.8 312.453Z" fill="#9BB6FF"/>
<path d="M5434.61 428.83C5426.23 428.83 5419.16 417.202 5413.6 394.266C5408.22 372.109 5405.27 342.652 5405.27 311.321H5407.1C5407.1 342.643 5410.06 372.091 5415.43 394.239C5423.11 425.914 5432.06 428.378 5434.63 428.378C5437.2 428.378 5446.14 425.914 5453.83 394.239C5459.21 372.091 5462.16 342.643 5462.16 311.321H5464C5464 342.652 5461.04 372.109 5455.67 394.266C5450.1 417.202 5443.04 428.83 5434.63 428.83H5434.61Z" fill="#9BB6FF"/>
</svg>
